<?xml version="1.0" encoding="UTF-8"?>
<!-- Generator: Adobe Illustrator 16.0.3, SVG Export Plug-In . SVG Version: 6.00 Build 0)  -->
<!DOCTYPE svg PUBLIC "-//W3C//DTD SVG 1.1//EN" "http://www.w3.org/Graphics/SVG/1.1/DTD/svg11.dtd">
<svg version="1.1" id="Layer_1" xmlns="http://www.w3.org/2000/svg" xmlns:xlink="http://www.w3.org/1999/xlink" x="0px" y="0px" width="181px" height="110px" viewBox="0 0 181 110" enable-background="new 0 0 181 110" xml:space="preserve">
<g>
	<g>
		<path fill="#231F20" d="M3.112,39.847c-0.236-0.323-0.612-0.487-0.995-0.487c-0.888,0-1.519,0.785-1.519,1.661    c0,0.921,0.625,1.656,1.519,1.656c0.484,0,0.871-0.199,1.15-0.56l0.355,0.3c-0.355,0.479-0.872,0.698-1.505,0.698    c-1.141,0-2.023-0.884-2.023-2.095c0-1.174,0.841-2.101,2.023-2.101c0.538,0,1.066,0.188,1.405,0.625L3.112,39.847z"/>
		<path fill="#231F20" d="M14.174,41.49c0,0.87-0.403,1.625-1.5,1.625c-1.095,0-1.501-0.756-1.501-1.625v-2.468h0.472v2.402    c0,0.645,0.236,1.252,1.029,1.252c0.79,0,1.028-0.607,1.028-1.252v-2.402h0.471V41.49z"/>
		<path fill="#231F20" d="M4.271,39.021c0.179,0,0.32,0.147,0.32,0.322c0,0.185-0.135,0.322-0.32,0.322    c-0.187,0-0.32-0.137-0.32-0.322C3.951,39.168,4.091,39.021,4.271,39.021 M4.052,40.378h0.439v2.638H4.052V40.378z"/>
		<path fill="#231F20" d="M6.717,40.745H5.944v1.324c0,0.335,0.004,0.606,0.393,0.606c0.129,0,0.27-0.028,0.387-0.089l0.019,0.4    c-0.153,0.068-0.35,0.096-0.514,0.096c-0.624,0-0.725-0.34-0.725-0.886v-1.452h-0.57v-0.369h0.57v-0.753h0.44v0.753h0.773V40.745z    "/>
		<path fill="#231F20" d="M8.233,43.621c-0.172,0.445-0.346,0.744-0.874,0.744c-0.125,0-0.277-0.01-0.395-0.063l0.059-0.388    c0.089,0.042,0.183,0.052,0.308,0.052c0.287,0,0.396-0.176,0.489-0.437l0.179-0.499L6.91,40.378h0.511l0.812,2.066h0.015    l0.779-2.066h0.478L8.233,43.621z"/>
		<path fill="#231F20" d="M14.79,41.003c0-0.246-0.023-0.453-0.023-0.626h0.416c0,0.14,0.012,0.286,0.012,0.434h0.012    c0.116-0.26,0.445-0.503,0.876-0.503c0.69,0,1.001,0.438,1.001,1.079v1.631h-0.439v-1.585c0-0.439-0.19-0.718-0.603-0.718    c-0.567,0-0.813,0.413-0.813,1.016v1.287H14.79V41.003z"/>
		<path fill="#231F20" d="M17.916,39.021c0.179,0,0.32,0.147,0.32,0.322c0,0.185-0.135,0.322-0.32,0.322    c-0.188,0-0.322-0.137-0.322-0.322C17.593,39.168,17.734,39.021,17.916,39.021 M17.696,40.378h0.438v2.638h-0.438V40.378z"/>
		<polygon fill="#231F20" points="20.049,43.016 19.566,43.016 18.494,40.376 19.004,40.376 19.827,42.444 19.837,42.444     20.62,40.376 21.089,40.376   "/>
		<path fill="#231F20" d="M26.343,42.321c0.174,0.214,0.367,0.356,0.675,0.356c0.275,0,0.579-0.119,0.579-0.407    c0-0.28-0.281-0.354-0.563-0.419c-0.498-0.108-0.926-0.217-0.926-0.764c0-0.514,0.497-0.781,0.983-0.781    c0.373,0,0.715,0.144,0.895,0.481l-0.366,0.243c-0.112-0.185-0.298-0.316-0.555-0.316c-0.245,0-0.52,0.119-0.52,0.369    c0,0.218,0.316,0.314,0.665,0.383c0.466,0.09,0.858,0.259,0.858,0.792c0,0.595-0.525,0.827-1.049,0.827    c-0.445,0-0.765-0.116-1.024-0.491L26.343,42.321z"/>
		<path fill="#231F20" d="M23.739,42.535c-0.31,0.402-0.68,0.548-1.169,0.548c-0.827,0-1.333-0.619-1.333-1.387    c0-0.818,0.573-1.39,1.35-1.39c0.741,0,1.247,0.511,1.247,1.383v0.144H21.71c0.032,0.457,0.379,0.844,0.859,0.844    c0.376,0,0.63-0.134,0.838-0.399L23.739,42.535z M23.36,41.459c-0.015-0.446-0.309-0.746-0.791-0.746    c-0.484,0-0.803,0.299-0.859,0.746H23.36z"/>
		<path fill="#231F20" d="M24.467,41.003c0-0.246-0.024-0.453-0.024-0.626h0.416c0,0.14,0.011,0.286,0.011,0.434h0.012    c0.118-0.26,0.444-0.503,0.876-0.503c0.057,0,0.117,0.005,0.181,0.028l-0.029,0.444c-0.074-0.022-0.159-0.034-0.236-0.034    c-0.534,0-0.771,0.381-0.771,0.984v1.287h-0.437V41.003z"/>
		<path fill="#231F20" d="M28.873,39.021c0.181,0,0.319,0.147,0.319,0.322c0,0.185-0.133,0.322-0.319,0.322    c-0.185,0-0.321-0.137-0.321-0.322C28.552,39.168,28.695,39.021,28.873,39.021 M28.654,40.378h0.439v2.638h-0.439V40.378z"/>
		<path fill="#231F20" d="M31.321,40.745h-0.776v1.324c0,0.335,0.006,0.606,0.394,0.606c0.13,0,0.268-0.028,0.389-0.089l0.016,0.4    c-0.152,0.068-0.347,0.096-0.509,0.096c-0.625,0-0.728-0.34-0.728-0.886v-1.452h-0.574v-0.369h0.574v-0.753h0.438v0.753h0.776    V40.745z"/>
		<path fill="#231F20" d="M32.861,43.621c-0.172,0.445-0.348,0.744-0.877,0.744c-0.125,0-0.276-0.01-0.396-0.063l0.06-0.388    c0.089,0.042,0.184,0.052,0.308,0.052c0.288,0,0.395-0.176,0.488-0.437l0.181-0.499l-1.09-2.652h0.511l0.816,2.066h0.011    l0.781-2.066h0.477L32.861,43.621z"/>
		<path fill="#231F20" d="M36.844,40.306c0.811,0,1.405,0.563,1.405,1.391c0,0.825-0.595,1.387-1.405,1.387    c-0.808,0-1.401-0.562-1.401-1.387C35.443,40.869,36.036,40.306,36.844,40.306 M36.844,42.677c0.568,0,0.933-0.429,0.933-0.98    c0-0.555-0.365-0.983-0.933-0.983c-0.567,0-0.935,0.428-0.935,0.983C35.909,42.248,36.277,42.677,36.844,42.677"/>
		<path fill="#231F20" d="M38.933,40.745h-0.571v-0.369h0.571v-0.592c0-0.645,0.225-1.101,0.934-1.101    c0.112,0,0.254,0.021,0.337,0.066l-0.062,0.396c-0.097-0.035-0.197-0.056-0.298-0.056c-0.454,0-0.471,0.333-0.471,0.79v0.497    h0.642v0.369h-0.642v2.271h-0.439V40.745z"/>
		<polygon fill="#231F20" points="41.886,39.021 42.357,39.021 42.357,40.713 44.482,40.713 44.482,39.021 44.954,39.021     44.954,43.016 44.482,43.016 44.482,41.154 42.357,41.154 42.357,43.016 41.886,43.016   "/>
		<path fill="#231F20" d="M46.909,40.306c0.808,0,1.405,0.563,1.405,1.391c0,0.825-0.597,1.387-1.405,1.387    s-1.406-0.562-1.406-1.387C45.503,40.869,46.101,40.306,46.909,40.306 M46.909,42.677c0.565,0,0.933-0.429,0.933-0.98    c0-0.555-0.368-0.983-0.933-0.983c-0.569,0-0.936,0.428-0.936,0.983C45.973,42.248,46.34,42.677,46.909,42.677"/>
		<path fill="#231F20" d="M48.86,41.003c0-0.246-0.019-0.453-0.019-0.626h0.414c0,0.14,0.012,0.286,0.012,0.434h0.011    c0.115-0.26,0.445-0.503,0.875-0.503c0.69,0,1.003,0.438,1.003,1.079v1.631h-0.44v-1.585c0-0.439-0.188-0.718-0.604-0.718    c-0.563,0-0.814,0.413-0.814,1.016v1.287H48.86V41.003z"/>
		<path fill="#231F20" d="M54.443,42.897c0,0.955-0.511,1.468-1.431,1.468c-0.513,0-0.923-0.127-1.295-0.493l0.317-0.365    c0.274,0.298,0.573,0.458,0.978,0.458c0.787,0,0.993-0.511,0.993-1.068v-0.339h-0.01c-0.208,0.339-0.581,0.492-0.927,0.492    c-0.828,0-1.397-0.578-1.397-1.353c0-0.864,0.559-1.391,1.397-1.391c0.354,0,0.751,0.172,0.927,0.521h0.01v-0.449h0.438V42.897z     M53.067,42.643c0.601,0,0.938-0.451,0.938-0.96c0-0.568-0.38-0.97-0.938-0.97c-0.551,0-0.928,0.428-0.928,0.983    C52.14,42.231,52.557,42.643,53.067,42.643"/>
		<path fill="#231F20" d="M60.906,40.306c0.809,0,1.402,0.563,1.402,1.391c0,0.825-0.593,1.387-1.402,1.387    c-0.811,0-1.407-0.562-1.407-1.387C59.499,40.869,60.095,40.306,60.906,40.306 M60.906,42.677c0.563,0,0.93-0.429,0.93-0.98    c0-0.555-0.367-0.983-0.93-0.983c-0.57,0-0.937,0.428-0.937,0.983C59.969,42.248,60.336,42.677,60.906,42.677"/>
		<path fill="#231F20" d="M62.858,41.003c0-0.246-0.024-0.453-0.024-0.626h0.416c0,0.14,0.011,0.286,0.011,0.434h0.011    c0.121-0.26,0.444-0.503,0.876-0.503c0.694,0,1.002,0.438,1.002,1.079v1.631h-0.437v-1.585c0-0.439-0.193-0.718-0.602-0.718    c-0.57,0-0.815,0.413-0.815,1.016v1.287h-0.438V41.003z"/>
		<path fill="#231F20" d="M68.44,42.897c0,0.955-0.513,1.468-1.434,1.468c-0.511,0-0.92-0.127-1.292-0.493l0.313-0.365    c0.275,0.298,0.574,0.458,0.979,0.458c0.787,0,0.997-0.511,0.997-1.068v-0.339h-0.011c-0.211,0.339-0.582,0.492-0.931,0.492    c-0.823,0-1.398-0.578-1.398-1.353c0-0.864,0.562-1.391,1.398-1.391c0.354,0,0.756,0.172,0.931,0.521h0.011v-0.449h0.438V42.897z     M67.061,42.643c0.603,0,0.942-0.451,0.942-0.96c0-0.568-0.384-0.97-0.942-0.97c-0.549,0-0.927,0.428-0.927,0.983    C66.134,42.231,66.55,42.643,67.061,42.643"/>
		<polygon fill="#231F20" points="56.569,39.021 57.04,39.021 57.04,40.745 57.109,40.745 58.918,39.021 59.596,39.021     57.633,40.842 59.693,43.016 59.002,43.016 57.109,40.984 57.04,40.984 57.04,43.016 56.569,43.016   "/>
		<path fill="#231F20" d="M4.043,31.859h2.4v-0.378H3.603v-0.698c0.778-0.069,1.513-0.173,2.176-0.307l0.07-0.016l-0.216-0.394    l-0.037,0.007c-1.543,0.309-3.117,0.462-4.674,0.462H0.855l0.113,0.407l0.039-0.001c0.766-0.018,1.504-0.061,2.193-0.12v0.66    H0.358v0.378h2.387c-0.252,0.273-0.59,0.544-1.006,0.811c-0.517,0.337-1.033,0.597-1.533,0.776l-0.056,0.019l0.18,0.367    l0.043-0.014c0.518-0.193,1.088-0.494,1.699-0.897c0.451-0.323,0.83-0.657,1.128-1.006v1.541H1.496v2.898h3.836v-2.898H3.603    v-1.541c0.59,0.668,1.502,1.289,2.71,1.842l0.035,0.016l0.325-0.352l-0.066-0.032C5.466,32.921,4.604,32.404,4.043,31.859     M4.932,35.979H1.9v-0.921h3.031V35.979z M1.9,33.832h3.031v0.848H1.9V33.832z"/>
		<path fill="#231F20" d="M38.045,34.514c-0.457-0.609-0.761-1.268-0.927-2.052h2.493V32.03h-3.023    c0.073-0.521,0.134-1.131,0.184-1.862l0.005-0.055h-0.423l-0.001,0.049c-0.044,0.677-0.112,1.32-0.192,1.869h-2.549v0.432h2.472    c-0.154,0.81-0.364,1.414-0.625,1.83c-0.438,0.723-1.119,1.329-2.08,1.854l-0.059,0.031l0.305,0.329l0.037-0.014    c1.039-0.564,1.763-1.222,2.211-2.006c0.268-0.47,0.477-1.117,0.641-2.024h0.175c0.17,0.845,0.491,1.578,0.985,2.268    c0.46,0.692,1.049,1.261,1.804,1.757l0.042,0.022l0.275-0.412l-0.045-0.032C39.04,35.632,38.483,35.126,38.045,34.514"/>
		<path fill="#231F20" d="M28.992,30.831l-0.029-0.037c-0.262-0.287-0.531-0.511-0.824-0.706l-0.04-0.022l-0.254,0.302l0.045,0.034    c0.301,0.215,0.559,0.442,0.764,0.693h-3.441V31.5h3.025v1.168h-2.271v3.228h0.459v-2.815h1.812v3.428h0.46v-3.428h1.897v2.083    c0,0.249-0.099,0.249-0.135,0.249c-0.275,0-0.6-0.074-0.958-0.217l-0.079-0.03l0.037,0.444l0.035,0.01    c0.365,0.131,0.682,0.193,0.965,0.193c0.386,0,0.591-0.206,0.591-0.594v-2.552h-2.354V31.5h3.027v-0.406h-2.955L28.992,30.831z"/>
		<path fill="#231F20" d="M9.895,31.62l0.038,0.041l0.253-0.336l-0.033-0.03c-0.323-0.319-0.689-0.603-1.092-0.85l-0.04-0.023    l-0.229,0.306l0.049,0.03C9.198,30.987,9.553,31.278,9.895,31.62"/>
		<path fill="#231F20" d="M13.426,32.803h1.453v-0.376h-1.545v-0.904h1.193v-0.377h-1.193v-1.034h-0.403v1.034H11.77v-1.034h-0.404    v1.034h-1.003v0.377h1.003v0.904H9.961v0.376h1.364c-0.102,0.21-0.241,0.435-0.418,0.666c-0.244,0.315-0.548,0.606-0.904,0.87    l-0.051,0.03l0.3,0.292l0.033-0.027c0.333-0.246,0.623-0.525,0.888-0.848v1.895c0,0.239,0.034,0.422,0.21,0.538    c0.17,0.106,0.622,0.137,2.01,0.137c0.646,0,0.896-0.074,0.995-0.291c0.053-0.11,0.09-0.419,0.11-0.924l0.002-0.04l-0.43-0.206    l-0.005,0.156c-0.012,0.319-0.022,0.633-0.065,0.732c-0.058,0.145-0.235,0.172-0.607,0.172c-1.028,0-1.571-0.002-1.713-0.087    c-0.089-0.05-0.104-0.104-0.104-0.209v-0.712h2.001v-1.364c0.304,0.309,0.667,0.598,1.083,0.868l0.038,0.022l0.313-0.352    l-0.055-0.029C14.28,33.695,13.765,33.262,13.426,32.803 M11.577,33.832h1.597v0.737h-1.597V33.832z M12.931,32.427H11.77v-0.904    h1.161V32.427z M11.415,33.456c0.145-0.215,0.262-0.431,0.357-0.653h1.182c0.142,0.223,0.309,0.443,0.503,0.653H11.415z"/>
		<path fill="#231F20" d="M10.016,33.815l-0.333-0.228l-0.02,0.066c-0.272,0.924-0.653,1.783-1.136,2.564L8.5,36.255l0.363,0.254    l0.03-0.046c0.503-0.903,0.867-1.754,1.115-2.611L10.016,33.815z"/>
		<path fill="#231F20" d="M9.591,33.214l0.043,0.048l0.253-0.328l-0.033-0.031c-0.325-0.356-0.681-0.664-1.089-0.936l-0.04-0.027    l-0.23,0.296l0.044,0.034C8.922,32.545,9.265,32.851,9.591,33.214"/>
		<path fill="#231F20" d="M42.267,33.344h5.093v0.733h0.393v-1.109h-0.457l0.061-2.531h-1.558v0.377h1.146l-0.011,0.465h-1.135    v0.382h1.129l-0.012,0.439h-1.228v0.374h1.217l-0.011,0.493h-1.432l0.255-0.28l-0.039-0.035c-0.162-0.151-0.311-0.287-0.469-0.42    c0.141-0.139,0.275-0.296,0.393-0.464l0.024-0.034l-0.146-0.168l0.237-0.263l-0.064-0.061c-0.129-0.114-0.259-0.231-0.399-0.349    c0.154-0.148,0.299-0.315,0.453-0.525l0.025-0.034l-0.239-0.268l-0.039,0.053c-0.137,0.197-0.298,0.375-0.489,0.55    c-0.19-0.144-0.405-0.286-0.652-0.442l-0.039-0.023l-0.226,0.269l0.048,0.029c0.228,0.148,0.414,0.274,0.587,0.402    c-0.208,0.155-0.439,0.292-0.691,0.403l-0.054,0.023l0.193,0.315l0.042-0.018c0.275-0.126,0.537-0.287,0.793-0.491    c0.142,0.128,0.279,0.258,0.392,0.369l-0.009,0.013c-0.122,0.174-0.263,0.337-0.426,0.492c-0.184-0.135-0.375-0.261-0.584-0.401    l-0.038-0.024l-0.228,0.279l0.051,0.032c0.157,0.099,0.326,0.214,0.509,0.351c-0.201,0.15-0.419,0.283-0.669,0.397l-0.055,0.023    l0.192,0.3h-1.408l-0.004-0.52h1.218v-0.375h-1.229l-0.005-0.411h1.186V31.28h-1.187l-0.005-0.279    c0.431-0.08,0.848-0.222,1.272-0.427l0.052-0.023l-0.221-0.36l-0.041,0.019c-0.502,0.215-0.968,0.356-1.421,0.424l-0.047,0.009    l0.057,2.326h-0.455v1.109h0.402V33.344z M44.149,32.955c0.277-0.126,0.541-0.288,0.778-0.475    c0.192,0.172,0.342,0.315,0.484,0.459l0.025,0.029h-1.321L44.149,32.955z"/>
		<path fill="#231F20" d="M47.975,34.896h-3.01c0-0.002,0-0.009-0.003-0.011c-0.003-0.016-0.01-0.033-0.014-0.048    c0.707-0.216,1.325-0.484,1.838-0.796l0.026-0.018V33.7h-3.977v0.377h3.151c-0.335,0.146-0.72,0.279-1.145,0.395l-0.001,0    c-0.016,0.003-0.054,0.013-0.098,0.027l-0.003,0c-0.003,0-0.006,0-0.008,0.002c-0.047,0.014-0.12,0.03-0.187,0.044    c-0.03,0.006-0.06,0.014-0.089,0.022l-0.064,0.018l0.03,0.056c0.038,0.076,0.072,0.157,0.105,0.254h-2.882v0.373h2.991    c0.037,0.165,0.066,0.314,0.073,0.513c0.009,0.176-0.009,0.256-0.056,0.288c-0.035,0.027-0.065,0.039-0.137,0.039    c-0.206,0-0.441-0.052-0.717-0.159l-0.078-0.036l0.038,0.446l0.036,0.012c0.291,0.094,0.552,0.138,0.798,0.138    c0.158,0,0.286-0.034,0.379-0.11c0.117-0.106,0.167-0.291,0.166-0.621c-0.001-0.169-0.023-0.319-0.065-0.509h2.904V34.896z"/>
		<path fill="#231F20" d="M18.944,34.396l-0.069-0.408L18.81,34.02c-0.192,0.109-0.331,0.169-0.585,0.271v-1.843h0.71v-0.375h-0.71    v-1.768h-0.406v1.768h-0.814v0.375h0.814v2.005c-0.284,0.111-0.552,0.213-0.877,0.305l-0.063,0.021l0.21,0.391l0.042-0.011    c0.596-0.194,1.18-0.441,1.776-0.745L18.944,34.396z"/>
		<path fill="#231F20" d="M22.986,35.09c-0.038,0.462-0.084,0.799-0.129,0.923c-0.03,0.091-0.075,0.091-0.09,0.091    c-0.078,0-0.228-0.142-0.416-0.546c-0.102-0.215-0.192-0.462-0.268-0.727c0,0,0.001,0,0.002-0.002l0.002-0.005    c0.345-0.48,0.627-1.278,0.843-2.361l0.01-0.055l-0.424-0.08l-0.01,0.054c-0.152,0.773-0.345,1.401-0.574,1.87    c-0.049-0.219-0.101-0.464-0.139-0.707c-0.086-0.546-0.145-1.139-0.169-1.749h1.633v-0.378h-1.652    c-0.018-0.381-0.026-0.794-0.026-1.253v-0.052h-0.43v0.052c0,0.504,0.008,0.893,0.025,1.253h-2.001v1.969    c0,0.714-0.093,1.273-0.278,1.699c-0.182,0.427-0.438,0.776-0.789,1.067l-0.04,0.035l0.259,0.322l0.042-0.03    c0.38-0.318,0.666-0.692,0.88-1.146c0.219-0.476,0.33-1.099,0.33-1.903V33.12h1.001c-0.027,0.808-0.081,1.383-0.15,1.615    c-0.066,0.216-0.171,0.216-0.204,0.216c-0.111,0-0.263-0.013-0.561-0.119l-0.068-0.022v0.441l0.037,0.008    c0.285,0.088,0.479,0.125,0.649,0.125c0.213,0,0.373-0.134,0.477-0.4c0.108-0.287,0.184-1.022,0.225-2.182l0.002-0.055h-1.408    v-0.951h1.615c0.044,0.721,0.12,1.386,0.225,1.966c0.062,0.331,0.14,0.675,0.225,0.967c-0.337,0.485-0.787,0.929-1.368,1.331    l-0.048,0.031l0.246,0.31l0.041-0.028c0.512-0.331,0.93-0.716,1.28-1.147c0.079,0.222,0.175,0.445,0.283,0.646    c0.218,0.395,0.441,0.606,0.684,0.636c0.149,0.02,0.295-0.049,0.376-0.182c0.102-0.166,0.175-0.482,0.228-0.996l0.004-0.031    l-0.374-0.306L22.986,35.09z"/>
		<path fill="#231F20" d="M22.511,31.304l0.024,0.059l0.36-0.25l-0.021-0.042c-0.164-0.321-0.339-0.58-0.581-0.854l-0.029-0.042    l-0.328,0.227l0.036,0.043C22.227,30.764,22.383,31.013,22.511,31.304"/>
		<path fill="#FFFFFF" d="M84.383,0.457L42.107,11.509c-0.061,0.013-0.179,0.055-0.253,0.104c-0.073,0.048-0.135,0.112-0.202,0.197    l-9.177,12.187c-0.033,0.042-0.032,0.088-0.032,0.124c-0.001,0.072,0.058,0.144,0.11,0.153l9.191,2.009l0.539,0.189l1.715,0.374    l1.174,0.161L56.71,29.51l1.037,0.314l1.329,0.291l0.907,0.117l18.031,3.916L84.383,0.457z"/>
	</g>
	<g>
		<defs>
			<path id="SVGID_1_" d="M78.075,34.236l0.121,0.025c0.07,0.013,0.165-0.115,0.206-0.283l7.291-28.624     c0.022-0.079,0.045-0.178,0.046-0.286c0-0.117-0.024-0.236-0.05-0.327l-1.208-4.384L78.075,34.236z"/>
		</defs>
		<clipPath id="SVGID_2_">
			<use xlink:href="#SVGID_1_" overflow="visible"/>
		</clipPath>
		
			<linearGradient id="SVGID_3_" gradientUnits="userSpaceOnUse" x1="-459.5479" y1="1109.5234" x2="-459.2394" y2="1109.5234" gradientTransform="matrix(-23.2824 108.6517 -108.6517 -23.2824 109937.6719 75763.5703)">
			<stop offset="0" style="stop-color:#BE2169"/>
			<stop offset="0.1604" style="stop-color:#B62166"/>
			<stop offset="0.4154" style="stop-color:#9F225F"/>
			<stop offset="0.7312" style="stop-color:#792252"/>
			<stop offset="1" style="stop-color:#542346"/>
		</linearGradient>
		<polygon clip-path="url(#SVGID_2_)" fill="url(#SVGID_3_)" points="78.411,-1.22 71.148,32.786 85.401,35.854 92.669,1.848   "/>
	</g>
	<g>
		<defs>
			<path id="SVGID_4_" d="M48.794,18.366h2.75l-0.733,8.504c0,0-1.807,0.09-1.649-1.758l0.48-5.532H48.69L48.794,18.366z      M72.197,25.008c0.451-0.415,0.724-1.317,0.843-2.681l0.353-4.073c0,0,0.093-1.091,1.272-1.091h0.279l-0.419,4.883     c-0.09,1.021-0.208,1.745-0.359,2.219c-0.157,0.473-0.437,0.938-0.826,1.38c-0.725,0.818-1.779,1.229-3.131,1.229     c-1.385,0-2.385-0.363-2.981-1.081c-0.585-0.717-0.737-1.835-0.608-3.351l0.352-4.078h-1.124l0.107-1.201h2.925l-0.098,1.201     l-0.323,3.646c-0.081,0.91-0.082,1.58-0.026,1.992c0.042,0.385,0.176,0.713,0.377,0.96c0.387,0.48,0.928,0.715,1.645,0.715     C71.142,25.679,71.716,25.458,72.197,25.008 M52.953,26.173c-0.37-0.46-0.512-1.173-0.43-2.126l0.612-7.072l1.84-0.447     l-0.162,1.838H56.2l-0.104,1.179h-1.384l-0.404,4.692c-0.044,0.5,0.011,0.877,0.157,1.122c0.143,0.225,0.36,0.336,0.678,0.336     c1.04,0,1.002,0.998,1.002,0.998s-0.798,0.179-1.329,0.179C53.957,26.872,53.328,26.639,52.953,26.173 M49.915,16.861     c0.044-0.501,0.478-0.904,0.979-0.904c0.494,0,0.865,0.403,0.815,0.904c-0.035,0.494-0.476,0.901-0.975,0.901     C50.238,17.762,49.871,17.355,49.915,16.861 M42.086,11.434c-0.068,0.021-0.191,0.065-0.274,0.118     c-0.088,0.059-0.158,0.136-0.22,0.217L32.36,24.026c-0.104,0.142-0.052,0.283,0.116,0.321l9.807,2.123     c-0.859-0.319-1.5-0.786-1.832-1.183c-0.875-1.038-1.257-2.472-1.046-4c0.535-3.881,3.307-5.621,5.872-5.621     c1.227,0,2.386,0.201,3.302,0.705l-0.152,1.728h-1.261l0.054-0.671c-0.462-0.286-2.11-0.549-3.47,0.007     c-1.595,0.739-2.283,2.644-2.373,3.925c-0.062,0.913,0.067,2.106,0.702,2.972c0.64,0.865,2.431,1.533,4.541,0.823     c0.936-0.333,1.354,0.643,1.354,0.643l-0.097,0.055c-1.393,0.832-2.726,1.07-3.879,0.993l13.75,2.979l1.92-3.521l-2.142-6.723     h-0.89l0.105-1.214h2.28l1.835,5.753l2.539-4.658c0,0,0.432-1.096,1.821-1.096h0.464l-6.4,11.437     c-0.065,0.114-0.129,0.222-0.204,0.312l18.999,4.121l6.405-33.878L42.086,11.434z"/>
		</defs>
		<clipPath id="SVGID_5_">
			<use xlink:href="#SVGID_4_" overflow="visible"/>
		</clipPath>
		
			<linearGradient id="SVGID_6_" gradientUnits="userSpaceOnUse" x1="-460.7935" y1="1107.6816" x2="-460.4852" y2="1107.6816" gradientTransform="matrix(-86.908 91.4959 -91.4959 -86.908 61379.9688 138423.5313)">
			<stop offset="0" style="stop-color:#FAD4DA"/>
			<stop offset="0.35" style="stop-color:#BE2169"/>
			<stop offset="1" style="stop-color:#542346"/>
		</linearGradient>
		<polygon clip-path="url(#SVGID_5_)" fill="url(#SVGID_6_)" points="57.024,-25.817 15.402,18.166 59.707,60.406 101.334,16.426       "/>
	</g>
	<path fill="#FFFFFF" d="M154.386,17.529l-0.67,0.068c-0.383,0.041-0.711,0.078-1.016,0.083l-0.888,0.007c0,0.655,0,5.24,0,5.878   c0.168,0.002,0.371,0.002,0.598-0.001c0.546-0.013,0.922-0.046,1.283-0.083c0.375-0.031,0.729-0.064,1.203-0.064   c0.165,0.001,0.302,0.035,0.418,0.08v-5.88c-0.049-0.021-0.102-0.04-0.171-0.06C155.14,17.558,154.783,17.488,154.386,17.529    M153.521,18.428c0.145-0.004,0.321-0.022,0.526-0.043l0.324-0.035l0.213-0.009l-0.004,0.417c0,0-0.163,0.006-0.166,0.006   l-0.323,0.037c-0.213,0.021-0.396,0.04-0.561,0.043l-0.997,0.026l-0.01-0.415C152.524,18.455,153.518,18.428,153.521,18.428    M154.579,22.566c0,0-0.159,0.006-0.164,0.006l-0.323,0.033c-0.213,0.026-0.396,0.044-0.561,0.048l-0.137,0.004l-0.862,0.021   l-0.005-0.416l0.854-0.024c0,0,0.139-0.002,0.14-0.002c0.145-0.003,0.322-0.021,0.527-0.044c0,0,0.325-0.035,0.321-0.035   l0.217-0.008L154.579,22.566z M154.579,21.298c0,0-0.162,0.004-0.169,0.004l-0.339,0.033c-0.204,0.024-0.382,0.046-0.54,0.047   h-0.106l-0.893,0.024l-0.005-0.417l0.886-0.022c0,0,0.107-0.002,0.109-0.002c0.141,0,0.312-0.021,0.504-0.041l0.346-0.037   l0.215-0.006L154.579,21.298z M154.579,20.029c0,0-0.169,0.005-0.164,0.005l-0.325,0.031c-0.211,0.023-0.394,0.042-0.559,0.046   l-0.997,0.029l-0.01-0.417l0.997-0.024c0.144-0.005,0.318-0.023,0.525-0.05c0,0,0.327-0.029,0.332-0.029l0.211-0.007   L154.579,20.029z"/>
	<path fill="#FFFFFF" d="M142.63,9.826c-0.244-0.128-0.383,0.082-0.482,0.282l-0.076,0.129l0.541,0.292l0.073-0.132   C142.787,10.2,142.879,9.961,142.63,9.826"/>
	<path fill="#FFFFFF" d="M148.397,19.234c0,4.662,5.23,7.692,6.917,8.546v-3.256c-0.075-0.06-0.128-0.123-0.162-0.166   c-0.085-0.106-0.117-0.149-0.256-0.149c-0.439-0.001-0.76,0.032-1.133,0.065c-0.356,0.031-0.759,0.071-1.335,0.084   c-0.569,0.012-1.009-0.01-1.029-0.011l-0.372-0.023v-1.271h-0.771v-0.94h0.771v-1.011h-0.771v-0.951h0.771v-1.24h-0.771v-0.947   h0.771v-0.664l-0.008-0.396l0.804-0.006l0.859-0.008c0.269-0.006,0.587-0.036,0.948-0.077c0,0,0.681-0.067,0.672-0.066   c0.516-0.057,0.972,0.036,1.012,0.043v-0.993h-6.917C148.397,17.681,148.397,19.234,148.397,19.234"/>
	<path fill="#FFFFFF" d="M159.406,11.445c-0.341,0.249-1.553,1.127-1.553,1.127l-0.001-0.002c0,0.039,0,0.069,0.001,0.081v0.005   c0.008,0.073,0.114,0.223,0.387,0.411c0.38,0.253,0.901,0.571,1.176,0.736c0.296-0.164,0.852-0.483,1.231-0.738   c0.101-0.068,0.341-0.246,0.345-0.384c0,0,0.002-0.025,0.002-0.027v0.001c0-0.017,0-0.069,0-0.148   C160.67,12.292,159.701,11.643,159.406,11.445"/>
	<polygon fill="#FFFFFF" points="158.399,30.47 158.282,31.459 158.925,31.317 158.408,30.47  "/>
	<path fill="#FFFFFF" d="M150.56,11.818c0,0.461,0.001,0.806,0.004,0.852c0.005,0.081,0.11,0.231,0.385,0.414   c0.382,0.254,0.904,0.569,1.183,0.737c0.29-0.165,0.849-0.483,1.227-0.737c0.103-0.069,0.342-0.243,0.346-0.385   c0,0,0.004-0.029,0.004-0.03v0.001c0.001-0.047,0.001-0.33,0.001-0.714v-0.138H150.56z"/>
	<path fill="#FFFFFF" d="M153.707,10.341h-3.147v0.69h3.148C153.707,10.798,153.707,10.563,153.707,10.341"/>
	<path fill="#FFFFFF" d="M142.512,22.758c-0.366,0.182-0.667,0.521-0.464,0.939c0.204,0.416,0.655,0.393,1.017,0.209   c0.362-0.177,0.653-0.527,0.453-0.932C143.319,22.569,142.871,22.583,142.512,22.758"/>
	<path fill="#FFFFFF" d="M154.581,30.637l-0.25-0.016l-0.088,1.563l0.252,0.015c0.381,0.019,0.763-0.244,0.792-0.739   C155.317,30.961,154.965,30.66,154.581,30.637"/>
	<path fill="#FFFFFF" d="M141.599,13.755c0.393,0.114,0.833,0.065,0.959-0.382c0.131-0.441-0.222-0.719-0.615-0.831   c-0.389-0.111-0.834-0.047-0.956,0.387C140.87,13.36,141.211,13.648,141.599,13.755"/>
	<path fill="#FFFFFF" d="M149.451,29.177l-0.228-0.113l-0.7,1.397l0.228,0.114c0.34,0.17,0.794,0.083,1.018-0.364   C149.989,29.771,149.789,29.351,149.451,29.177"/>
	<path fill="#FFFFFF" d="M161.794,29.137l-0.223,0.122l0.74,1.373l0.226-0.12c0.33-0.183,0.52-0.609,0.281-1.047   C162.586,29.027,162.127,28.953,161.794,29.137"/>
	<path fill="#FFFFFF" d="M168.994,23.257c-0.194-0.099-0.414-0.111-0.521,0.088c-0.09,0.196,0.045,0.362,0.255,0.464   c0.192,0.096,0.403,0.101,0.497-0.103C169.326,23.521,169.175,23.348,168.994,23.257"/>
	<path fill="#FFFFFF" d="M157.851,10.32c-0.001,0.295-0.001,0.606-0.001,0.906v0.372l1.317-0.956l0.222-0.161l1.607,1.076   c0-0.391-0.002-0.833-0.002-1.238H157.851z"/>
	<path fill="#FFFFFF" d="M166.975,7.359c0.205-0.181,0.055-0.383-0.094-0.555l-0.099-0.11l-0.457,0.404l0.097,0.113   C166.563,7.376,166.758,7.546,166.975,7.359"/>
	<path fill="#FFFFFF" d="M155.673,0.793c-8.875,0-16.1,7.246-16.1,16.152c0,8.902,7.225,16.15,16.1,16.15   c8.871,0,16.089-7.248,16.089-16.15C171.762,8.039,164.544,0.793,155.673,0.793 M171.078,15.702l-0.926,0.583l0.986,0.49   l0.02,0.474l-1.415-0.726l-0.898,0.049l-0.026-0.451l0.896-0.049l1.334-0.897L171.078,15.702z M170.456,12.417l0.421,1.691   l-0.347,0.086l-0.152-0.628l-1.867,0.459l-0.099-0.438l1.849-0.458l-0.15-0.625L170.456,12.417z M170.049,11.29l-2.109,0.861   l-0.172-0.418l2.105-0.862L170.049,11.29z M168.027,8.753c0.432-0.261,0.786-0.019,0.988,0.321   c0.104,0.167,0.166,0.336,0.203,0.504l-0.344,0.158c-0.022-0.155-0.064-0.31-0.145-0.443c-0.082-0.135-0.241-0.27-0.449-0.145   c-0.343,0.203,0.304,0.965-0.354,1.355c-0.428,0.255-0.792,0.016-1.021-0.375c-0.124-0.212-0.154-0.32-0.215-0.542l0.369-0.175   c0.006,0.177,0.052,0.359,0.142,0.51c0.087,0.15,0.277,0.301,0.454,0.195C168.036,9.896,167.378,9.138,168.027,8.753    M167.073,6.483c0.322,0.363,0.707,0.786,0.237,1.204c-0.201,0.178-0.483,0.188-0.703,0l-0.003,0.003   c0.072,0.099,0.027,0.235-0.02,0.339l-0.428,0.857l-0.337-0.379l0.354-0.673c0.089-0.159,0.101-0.246-0.022-0.391l-0.098-0.108   l-0.709,0.625l-0.299-0.339l1.709-1.505L167.073,6.483z M165.707,5.13l-0.227,0.283l-0.686-0.54l-0.344,0.442l0.632,0.497   l-0.223,0.282L164.228,5.6l-0.39,0.504l0.697,0.546l-0.226,0.283l-1.043-0.824l1.396-1.798L165.707,5.13z M161.719,2.628   l0.424,0.22l-0.287,1.858l0.006,0.004l1.307-1.341l0.4,0.203l-1.695,1.694l-0.493-0.251L161.719,2.628z M160.121,2.088l0.425,0.132   l-0.682,2.178l-0.429-0.134L160.121,2.088z M156.895,1.467l0.548,0.074l0.617,1.809l0.009,0.001l0.229-1.692l0.424,0.057   l-0.304,2.262l-0.549-0.074l-0.618-1.804h-0.006l-0.228,1.687l-0.428-0.055L156.895,1.467z M153.975,1.543l0.106,1.315   c0.033,0.387,0.176,0.633,0.521,0.606c0.341-0.031,0.44-0.294,0.407-0.685l-0.105-1.312l0.446-0.035l0.118,1.451   c0.054,0.609-0.266,0.887-0.838,0.938c-0.572,0.047-0.932-0.173-0.985-0.786l-0.12-1.453L153.975,1.543z M150.324,2.421   l0.652,1.805l0.818-0.296l0.122,0.338l-1.243,0.452l-0.771-2.147L150.324,2.421z M147.985,3.514l0.941,1.675l0.75-0.43l0.177,0.315   l-1.146,0.65l-1.114-1.985L147.985,3.514z M146.388,4.545l0.227,0.278l-0.681,0.552l0.357,0.438l0.623-0.509l0.22,0.28   l-0.622,0.507l0.406,0.498l0.686-0.558l0.225,0.278l-1.03,0.845l-1.438-1.772L146.388,4.545z M143.436,7.434l1.858,0.431   l0.004-0.004l-1.312-1.091l0.279-0.333l1.747,1.458l-0.35,0.424l-1.857-0.427l-0.005,0.005l1.312,1.09l-0.28,0.331l-1.75-1.454   L143.436,7.434z M141.777,10.039c0.223-0.427,0.478-0.943,1.04-0.646c0.233,0.125,0.349,0.389,0.245,0.659l0.002,0.002   c0.07-0.102,0.212-0.108,0.321-0.1l0.954,0.1l-0.232,0.447l-0.752-0.097c-0.182-0.024-0.27-0.005-0.356,0.162l-0.069,0.132   l0.833,0.444l-0.207,0.398l-2.01-1.074L141.777,10.039z M140.644,12.828c0.193-0.68,0.764-0.93,1.42-0.738   c0.664,0.188,1.033,0.699,0.84,1.383c-0.195,0.695-0.763,0.929-1.438,0.739C140.799,14.02,140.445,13.519,140.644,12.828    M140.11,15.684c0.009-0.148,0.055-0.342,0.124-0.501l0.386,0.055c-0.107,0.165-0.144,0.316-0.15,0.478   c-0.029,0.462,0.308,0.777,0.776,0.806c0.459,0.029,0.822-0.235,0.856-0.713c0.013-0.177-0.019-0.386-0.064-0.497l0.379,0.003   c0.033,0.168,0.056,0.346,0.045,0.518c-0.053,0.726-0.449,1.21-1.213,1.159C140.47,16.945,140.064,16.444,140.11,15.684    M140.582,20.647l2.188-0.633l0.351,1.217l-0.344,0.098l-0.224-0.775l-0.54,0.157l0.208,0.736l-0.338,0.103l-0.21-0.743   l-0.959,0.276L140.582,20.647z M141.727,23.853c-0.319-0.653-0.052-1.214,0.578-1.523c0.618-0.305,1.216-0.165,1.532,0.483   c0.317,0.642,0.061,1.214-0.561,1.521C142.666,24.637,142.044,24.502,141.727,23.853 M143.567,26.781   c-0.357-0.457-0.372-0.888,0.099-1.263l1.141-0.906l0.278,0.354l-1.022,0.819c-0.306,0.239-0.429,0.496-0.208,0.77   c0.215,0.273,0.485,0.213,0.794-0.031l1.029-0.818l0.279,0.357l-1.139,0.904C144.34,27.35,143.934,27.233,143.567,26.781    M146.245,29.39l0.403-1.873l-0.004-0.002l-1.076,1.318l-0.337-0.274l1.438-1.766l0.434,0.354l-0.411,1.869l0.007,0.004   l1.078-1.316l0.337,0.275l-1.444,1.763L146.245,29.39z M150.188,30.425c-0.4,0.809-1.06,0.745-1.677,0.43l-0.553-0.277l1.013-2.038   l0.559,0.278C150.15,29.13,150.595,29.618,150.188,30.425 M152.806,30.404l-0.851-0.231l-0.146,0.546l0.781,0.21l-0.09,0.347   l-0.783-0.211l-0.167,0.62l0.862,0.23l-0.092,0.351l-1.301-0.351l0.589-2.204l1.292,0.347L152.806,30.404z M154.388,32.552   l-0.618-0.036l0.129-2.279l0.616,0.035c0.697,0.04,1.295,0.311,1.243,1.213C155.707,32.389,155.084,32.587,154.388,32.552    M159.424,32.114l-0.295-0.47l-0.906,0.194l-0.075,0.55l-0.464,0.099l0.388-2.416l0.497-0.106l1.347,2.041L159.424,32.114z    M160.581,31.75l-0.156-0.432l0.425-0.155l0.158,0.43L160.581,31.75z M162.63,30.866l-0.545,0.298l-1.081-2.003l0.546-0.297   c0.604-0.333,1.257-0.418,1.688,0.376C163.67,30.038,163.237,30.535,162.63,30.866 M164.16,29.958l-0.266-0.376l0.376-0.26   l0.265,0.375L164.16,29.958z M155.673,29.668c-6.991,0-12.679-5.71-12.679-12.723c0-7.019,5.688-12.728,12.679-12.728   c6.987,0,12.674,5.708,12.674,12.728C168.347,23.958,162.66,29.668,155.673,29.668 M166.393,28.12l-1.23-1.25l-0.058,0.493   l-0.365-0.052l0.098-0.851l0.282-0.284l1.596,1.628L166.393,28.12z M168.089,26.231c-0.271,0.356-0.638,0.532-1.009,0.253   c-0.201-0.151-0.258-0.372-0.205-0.676l-0.005-0.002c-0.216,0.126-0.456,0.132-0.648-0.008c-0.326-0.245-0.299-0.609-0.055-0.939   c0.238-0.321,0.584-0.511,0.893-0.29c0.164,0.127,0.286,0.369,0.212,0.628l0.003,0.003c0.293-0.156,0.527-0.148,0.74,0.003   C168.388,25.479,168.349,25.869,168.089,26.231 M169.531,23.858c-0.282,0.569-0.815,0.457-1.288,0.22   c-0.552-0.279-1.072-0.761-0.741-1.418c0.074-0.151,0.164-0.277,0.278-0.394l0.312,0.219c-0.109,0.085-0.192,0.176-0.264,0.315   c-0.172,0.349,0.098,0.636,0.393,0.799l0.01-0.005c-0.101-0.163-0.101-0.322-0.009-0.494c0.193-0.385,0.543-0.472,0.914-0.283   C169.572,23.039,169.759,23.397,169.531,23.858 M170.504,21.416c-0.058,0.171-0.134,0.357-0.22,0.493l-0.386-0.129   c0.08-0.092,0.184-0.221,0.243-0.41c0.075-0.228,0.036-0.5-0.249-0.583c-0.276-0.086-0.444,0.135-0.523,0.384   c-0.033,0.138-0.054,0.267-0.051,0.411l-1.176-0.371l0.376-1.252l0.323,0.094l-0.239,0.84l0.455,0.152   c0.007-0.059,0.015-0.125,0.046-0.206c0.082-0.308,0.35-0.661,0.919-0.493C170.423,20.468,170.67,20.852,170.504,21.416"/>
	<path fill="#FFFFFF" d="M166.469,25.022c-0.101,0.139-0.126,0.328,0.023,0.43c0.159,0.118,0.35,0.006,0.484-0.084   c0.045-0.124,0-0.313-0.11-0.396C166.726,24.869,166.568,24.887,166.469,25.022"/>
	<path fill="#FFFFFF" d="M155.673,5.004c-6.562,0-11.898,5.355-11.898,11.941c0,6.58,5.337,11.937,11.898,11.937   c6.56,0,11.892-5.356,11.892-11.937C167.564,10.36,162.232,5.004,155.673,5.004 M159.751,26.322   c-1.935,1.554-3.841,2.401-3.918,2.432l-0.156,0.071l-0.158-0.07c-0.08-0.032-1.992-0.862-3.926-2.437   c-2.613-2.12-3.986-4.567-3.986-7.085l0.002-10.865l15.718-0.003h0.394l0.002,11.062C163.722,21.844,162.346,24.227,159.751,26.322   "/>
	<path fill="#FFFFFF" d="M162.936,9.158c-0.73,0-13.813,0.001-14.538,0.001c0,0.394,0,3.271,0,5.851h14.539   C162.937,12.406,162.936,9.547,162.936,9.158 M154.492,12.723c-0.009,0.378-0.237,0.712-0.696,1.018   c-0.558,0.374-1.449,0.862-1.479,0.885l-0.202,0.106l-0.19-0.114c-0.035-0.02-0.859-0.507-1.412-0.878   c-0.473-0.313-0.708-0.647-0.734-1.019c-0.004-0.074-0.004-1.554-0.003-2.779l0.001-0.394h4.716v0.394   C154.499,12.637,154.492,12.705,154.492,12.723 M161.779,12.701c-0.013,0.382-0.237,0.714-0.695,1.023   c-0.559,0.373-1.45,0.858-1.486,0.878l-0.194,0.109l-0.19-0.113c-0.033-0.022-0.861-0.503-1.41-0.875   c-0.471-0.318-0.711-0.647-0.735-1.015c-0.001-0.023-0.01-0.091-0.003-2.784V9.53h4.715v0.395   C161.783,11.709,161.781,12.646,161.779,12.701"/>
	<path fill="#FFFFFF" d="M157.62,17.598c0,0-0.677-0.068-0.681-0.07c-0.385-0.039-0.739,0.029-0.741,0.03   c-0.119,0.027-0.189,0.062-0.231,0.095v5.866c0.124-0.057,0.272-0.099,0.467-0.1c0.476-0.001,0.831,0.033,1.205,0.064   c0.361,0.037,0.733,0.07,1.28,0.083c0.228,0.003,0.432,0.003,0.593,0.001c0-0.638,0-5.223,0-5.878l-0.886-0.007   C158.329,17.675,158.001,17.638,157.62,17.598 M158.776,22.687l-0.995-0.026c-0.158-0.001-0.33-0.021-0.535-0.042   c0,0-0.35-0.036-0.352-0.036l-0.171-0.007l-0.016-0.416c0,0,0.232,0.008,0.23,0.008l0.354,0.039c0.189,0.02,0.36,0.036,0.502,0.04   l0.989,0.026L158.776,22.687z M156.705,20.892c0,0,0.235,0.006,0.23,0.006l0.359,0.039c0.19,0.022,0.358,0.037,0.498,0.039   l0.47,0.011l0.519,0.015l-0.003,0.415l-0.528-0.011l-0.468-0.014c-0.158-0.002-0.331-0.02-0.533-0.046c0,0-0.352-0.03-0.354-0.03   l-0.171-0.008L156.705,20.892z M158.776,20.146l-0.994-0.021c-0.162-0.004-0.338-0.026-0.544-0.047l-0.342-0.032l-0.17-0.007   l-0.021-0.417c0,0,0.234,0.008,0.233,0.008l0.343,0.034c0.196,0.023,0.37,0.04,0.512,0.043l0.991,0.024L158.776,20.146z    M158.776,18.88c0,0-0.995-0.031-0.994-0.029c-0.162-0.003-0.34-0.023-0.548-0.042c0,0-0.338-0.037-0.34-0.037l-0.173-0.005   l-0.014-0.416c0,0,0.232,0.009,0.23,0.009l0.341,0.035c0.198,0.019,0.37,0.042,0.516,0.043l0.989,0.028L158.776,18.88z"/>
	<path fill="#FFFFFF" d="M155.967,15.794v1.003c0.02-0.005,0.041-0.008,0.062-0.012c0.019-0.006,0.482-0.1,0.989-0.042l0.683,0.07   c0.364,0.039,0.678,0.068,0.947,0.075l0.858,0.009l0.798,0.005v1.25h0.692v0.943h-0.692v1.244h0.736v0.948h-0.736v1.01h0.692v0.943   h-0.692v1.084l-0.373,0.023c-0.019,0-0.463,0.022-1.031,0.011c-0.57-0.012-0.976-0.053-1.336-0.084   c-0.369-0.033-0.688-0.066-1.129-0.065c-0.152,0-0.2,0.056-0.288,0.161c-0.046,0.051-0.101,0.115-0.18,0.171v3.272   c1.601-0.812,6.971-3.874,6.971-8.387c0,0,0-1.653,0-3.632H155.967z"/>
	<path fill="#FFFFFF" d="M167.22,25.654c-0.034,0.179-0.022,0.342,0.13,0.459c0.15,0.113,0.355,0.06,0.458-0.088   c0.115-0.144,0.104-0.327-0.05-0.441C167.577,25.449,167.38,25.538,167.22,25.654"/>
	<path fill="#AC162C" d="M155.673,33.886c9.305,0,16.879-7.6,16.879-16.94C172.552,7.6,164.978,0,155.673,0   c-9.308,0-16.883,7.6-16.883,16.945C138.79,26.286,146.365,33.886,155.673,33.886 M155.673,0.793   c8.871,0,16.089,7.246,16.089,16.152c0,8.902-7.218,16.15-16.089,16.15c-8.875,0-16.1-7.248-16.1-16.15   C139.573,8.039,146.798,0.793,155.673,0.793"/>
	<path fill="#AC162C" d="M142.994,16.945c0,7.013,5.688,12.722,12.679,12.722c6.987,0,12.674-5.709,12.674-12.722   c0-7.019-5.687-12.728-12.674-12.728C148.682,4.218,142.994,9.926,142.994,16.945 M155.673,5.004   c6.56,0,11.892,5.355,11.892,11.941c0,6.58-5.332,11.937-11.892,11.937c-6.562,0-11.898-5.356-11.898-11.937   C143.774,10.36,149.111,5.004,155.673,5.004"/>
	<path fill="#AC162C" d="M153.533,18.843c0.163-0.003,0.346-0.021,0.559-0.043l0.323-0.037c0.003,0,0.166-0.006,0.166-0.006   l0.004-0.417l-0.213,0.009l-0.324,0.035c-0.204,0.021-0.381,0.039-0.526,0.043c-0.002,0-0.996,0.026-0.996,0.026l0.009,0.415   L153.533,18.843z"/>
	<path fill="#AC162C" d="M154.049,22.192c-0.205,0.023-0.383,0.041-0.527,0.044c-0.001,0-0.139,0.004-0.139,0.004l-0.855,0.023   l0.006,0.416l0.861-0.021l0.139-0.004c0.163-0.004,0.346-0.022,0.559-0.048l0.323-0.033c0.004,0,0.164-0.006,0.164-0.006   l0.008-0.419l-0.217,0.01C154.374,22.158,154.049,22.192,154.049,22.192"/>
	<path fill="#AC162C" d="M154.026,20.925c-0.192,0.02-0.363,0.041-0.504,0.041c-0.002,0-0.11,0.002-0.11,0.002l-0.885,0.022   l0.005,0.417l0.893-0.024h0.108c0.156-0.001,0.334-0.023,0.536-0.047l0.344-0.033c0.005,0,0.165-0.004,0.165-0.004l0.009-0.417   l-0.215,0.006L154.026,20.925z"/>
	<path fill="#AC162C" d="M154.047,19.649c-0.207,0.027-0.382,0.045-0.525,0.05l-0.997,0.024l0.01,0.417l0.997-0.029   c0.165-0.004,0.348-0.023,0.559-0.046l0.325-0.031c-0.005,0,0.163-0.005,0.163-0.005l0.012-0.417l-0.211,0.007   C154.374,19.62,154.047,19.649,154.047,19.649"/>
	<path fill="#AC162C" d="M156.895,21.316c0.003,0,0.354,0.03,0.354,0.03c0.202,0.026,0.375,0.043,0.533,0.045l0.468,0.014   l0.528,0.011l0.003-0.415l-0.519-0.015l-0.468-0.011c-0.142-0.002-0.31-0.017-0.5-0.039l-0.359-0.039   c0.005,0-0.23-0.006-0.23-0.006l0.019,0.416L156.895,21.316z"/>
	<path fill="#AC162C" d="M157.279,18.395l-0.341-0.035c0.002,0-0.23-0.009-0.23-0.009l0.015,0.415l0.172,0.006   c0.002,0,0.34,0.037,0.34,0.037c0.208,0.019,0.386,0.039,0.548,0.042c-0.001-0.002,0.994,0.029,0.994,0.029l0.008-0.414   l-0.989-0.028C157.649,18.437,157.478,18.414,157.279,18.395"/>
	<path fill="#AC162C" d="M157.294,22.207l-0.355-0.039c0.001,0-0.23-0.009-0.23-0.009l0.016,0.417l0.171,0.007   c0.002,0,0.352,0.036,0.352,0.036c0.205,0.021,0.377,0.041,0.535,0.042l0.995,0.026l0.008-0.414l-0.989-0.026   C157.653,22.243,157.482,22.227,157.294,22.207"/>
	<path fill="#AC162C" d="M151.593,26.319c1.934,1.574,3.846,2.405,3.926,2.437l0.158,0.07l0.156-0.07   c0.077-0.032,1.983-0.879,3.918-2.433c2.595-2.096,3.972-4.478,3.972-6.896l-0.003-11.06h-0.394l-15.718,0.002l-0.002,10.865   C147.606,21.752,148.979,24.199,151.593,26.319 M155.314,23.498c-0.116-0.046-0.252-0.079-0.418-0.08   c-0.474,0-0.827,0.033-1.202,0.064c-0.361,0.037-0.737,0.07-1.284,0.083c-0.228,0.003-0.43,0.003-0.598,0.001   c0-0.638,0.001-5.223,0.001-5.878l0.887-0.007c0.305-0.006,0.633-0.043,1.016-0.083l0.669-0.068   c0.398-0.041,0.755,0.029,0.759,0.029c0.069,0.021,0.122,0.038,0.171,0.06V23.498z M162.938,19.426c0,4.514-5.37,7.576-6.971,8.387   v-3.272c0.079-0.056,0.134-0.12,0.18-0.171c0.088-0.105,0.136-0.161,0.288-0.161c0.441-0.001,0.76,0.032,1.13,0.065   c0.359,0.031,0.765,0.072,1.335,0.084c0.569,0.012,1.013-0.01,1.031-0.011l0.375-0.023V23.24h0.69v-0.943h-0.69l-0.002-1.01h0.736   v-0.948h-0.736v-1.244h0.692v-0.943h-0.692v-1.25l-0.798-0.005l-0.858-0.009c-0.27-0.006-0.583-0.036-0.947-0.075l-0.683-0.07   c-0.507-0.057-0.971,0.037-0.989,0.042c-0.021,0.003-0.04,0.006-0.062,0.012v-1.003h6.97   C162.938,17.773,162.938,19.426,162.938,19.426 M159.512,23.566c-0.161,0.002-0.363,0.002-0.593-0.001   c-0.547-0.013-0.918-0.046-1.28-0.083c-0.374-0.031-0.729-0.064-1.205-0.064c-0.194,0-0.343,0.042-0.467,0.1v-5.867   c0.045-0.032,0.112-0.066,0.233-0.093c0-0.001,0.353-0.069,0.739-0.03c0.004,0.002,0.681,0.07,0.681,0.07   c0.382,0.041,0.709,0.078,1.006,0.083l0.886,0.007C159.512,18.344,159.512,22.929,159.512,23.566 M148.398,9.159   c0.725,0,13.807-0.001,14.537-0.001c0,0.389,0.001,3.249,0.001,5.852h-14.539C148.397,12.43,148.398,9.553,148.398,9.159    M148.397,15.794h6.917v0.993c-0.04-0.007-0.496-0.1-1.012-0.044c0.009,0-0.672,0.066-0.672,0.066   c-0.361,0.042-0.68,0.072-0.948,0.079l-0.859,0.009l-0.804,0.005l0.008,0.396v0.664h-0.771v0.947h0.771v1.24h-0.771v0.951h0.771   v1.011h-0.771v0.94h0.771v1.271l0.372,0.023c0.021,0,0.46,0.022,1.029,0.011c0.576-0.012,0.979-0.053,1.335-0.084   c0.373-0.033,0.693-0.066,1.133-0.065c0.139,0,0.171,0.043,0.256,0.149c0.034,0.043,0.087,0.106,0.162,0.166v3.256   c-1.687-0.854-6.917-3.884-6.917-8.546C148.397,19.234,148.397,17.681,148.397,15.794"/>
	<path fill="#AC162C" d="M154.492,9.549h-4.716v0.394c-0.002,1.226-0.002,2.706,0.002,2.779c0.026,0.372,0.261,0.707,0.734,1.019   c0.553,0.371,1.377,0.858,1.412,0.878l0.19,0.114l0.202-0.106c0.029-0.023,0.921-0.511,1.479-0.885   c0.459-0.306,0.688-0.64,0.696-1.018c0-0.018,0.007-0.085,0-2.78V9.549z M150.56,10.341h3.147c0,0.222,0,0.457,0.001,0.69h-3.148   V10.341z M153.707,12.67L153.707,12.67c0,0-0.004,0.029-0.004,0.029c-0.004,0.143-0.243,0.316-0.344,0.385   c-0.38,0.254-0.939,0.573-1.229,0.737c-0.278-0.168-0.801-0.483-1.183-0.737c-0.273-0.183-0.38-0.333-0.385-0.414   c-0.003-0.046-0.004-0.391-0.004-0.852h3.148v0.138C153.708,12.34,153.708,12.623,153.707,12.67"/>
	<path fill="#AC162C" d="M157.281,19.664l-0.343-0.034c0.001,0-0.233-0.008-0.233-0.008l0.021,0.417l0.17,0.007l0.342,0.032   c0.206,0.021,0.382,0.043,0.544,0.047l0.994,0.021l0.008-0.415l-0.991-0.024C157.651,19.704,157.478,19.687,157.281,19.664"/>
	<path fill="#AC162C" d="M161.779,9.531h-4.715v0.395c-0.007,2.693,0.002,2.761,0.003,2.784c0.024,0.368,0.265,0.697,0.735,1.015   c0.549,0.371,1.377,0.852,1.41,0.875l0.19,0.113l0.194-0.109c0.036-0.02,0.928-0.505,1.486-0.878   c0.458-0.31,0.683-0.642,0.695-1.023c0.002-0.055,0.002-0.992,0-2.777V9.531z M160.994,12.654c0,0.001-0.004,0.026-0.004,0.026   c-0.002,0.139-0.242,0.316-0.343,0.384c-0.38,0.254-0.937,0.574-1.231,0.738c-0.274-0.165-0.796-0.483-1.176-0.736   c-0.272-0.188-0.379-0.338-0.388-0.411V12.65c0-0.012,0-0.042,0-0.081l0.001,0.002c0,0,1.212-0.878,1.553-1.127   c0.295,0.198,1.265,0.848,1.59,1.062c0,0.079-0.002,0.131-0.002,0.148V12.654z M159.389,10.481l-0.222,0.161l-1.317,0.956v-0.371   c0-0.301,0-0.611,0.001-0.907h3.144c0.002,0.405,0.002,0.847,0.002,1.238L159.389,10.481z"/>
	<path fill="#AC162C" d="M142.462,15.833c0.011-0.172-0.012-0.35-0.045-0.518l-0.379-0.003c0.046,0.111,0.077,0.32,0.064,0.497   c-0.036,0.479-0.396,0.742-0.856,0.713c-0.469-0.029-0.806-0.344-0.776-0.806c0.007-0.162,0.043-0.313,0.15-0.478l-0.386-0.055   c-0.069,0.16-0.115,0.353-0.124,0.501c-0.046,0.761,0.359,1.262,1.139,1.309C142.013,17.042,142.41,16.559,142.462,15.833"/>
	<path fill="#AC162C" d="M141.465,14.211c0.676,0.19,1.243-0.043,1.438-0.739c0.193-0.684-0.176-1.194-0.84-1.383   c-0.656-0.192-1.227,0.059-1.42,0.738C140.445,13.519,140.799,14.02,141.465,14.211 M140.986,12.93   c0.122-0.434,0.567-0.498,0.956-0.387c0.394,0.111,0.746,0.39,0.615,0.831c-0.126,0.447-0.566,0.496-0.959,0.382   C141.211,13.648,140.87,13.36,140.986,12.93"/>
	<path fill="#AC162C" d="M143.763,11.143l-0.833-0.444l0.071-0.133c0.085-0.167,0.173-0.186,0.354-0.162l0.753,0.096l0.232-0.446   l-0.954-0.1c-0.109-0.008-0.251-0.002-0.321,0.1v-0.002c0.102-0.271-0.014-0.534-0.247-0.659c-0.563-0.298-0.817,0.217-1.04,0.646   l-0.231,0.429l2.01,1.074L143.763,11.143z M142.686,10.397l-0.072,0.132l-0.542-0.292l0.076-0.129c0.1-0.2,0.24-0.41,0.482-0.283   C142.879,9.961,142.787,10.2,142.686,10.397"/>
	<polygon fill="#AC162C" points="145.112,8.986 143.801,7.896 143.806,7.891 145.663,8.317 146.013,7.894 144.265,6.436    143.985,6.769 145.298,7.86 145.294,7.865 143.436,7.434 143.082,7.863 144.831,9.317  "/>
	<polygon fill="#AC162C" points="147.828,6.309 147.604,6.031 146.918,6.588 146.512,6.091 147.134,5.584 146.914,5.304    146.291,5.813 145.934,5.375 146.614,4.823 146.388,4.545 145.36,5.382 146.798,7.154  "/>
	<polygon fill="#AC162C" points="149.854,5.074 149.677,4.759 148.927,5.189 147.985,3.513 147.593,3.74 148.707,5.725  "/>
	<polygon fill="#AC162C" points="151.917,4.269 151.795,3.931 150.979,4.227 150.324,2.421 149.902,2.574 150.675,4.721  "/>
	<path fill="#AC162C" d="M154.63,3.821c0.572-0.051,0.892-0.329,0.838-0.938l-0.118-1.451l-0.446,0.035l0.105,1.312   c0.033,0.391-0.066,0.654-0.407,0.685c-0.345,0.027-0.487-0.219-0.52-0.606l-0.107-1.315l-0.45,0.04l0.12,1.453   C153.698,3.648,154.058,3.869,154.63,3.821"/>
	<polygon fill="#AC162C" points="157.245,2.099 157.251,2.099 157.869,3.903 158.418,3.977 158.722,1.715 158.298,1.658    158.068,3.351 158.06,3.349 157.442,1.541 156.895,1.467 156.59,3.731 157.018,3.786  "/>
	
		<rect x="159.768" y="2.102" transform="matrix(0.9548 0.2974 -0.2974 0.9548 8.2035 -47.4345)" fill="#AC162C" width="0.445" height="2.282"/>
	<polygon fill="#AC162C" points="163.568,3.571 163.168,3.368 161.861,4.709 161.855,4.706 162.143,2.848 161.719,2.628    161.38,5.014 161.873,5.264  "/>
	<polygon fill="#AC162C" points="164.31,6.933 164.535,6.65 163.838,6.104 164.228,5.598 164.86,6.094 165.081,5.812 164.451,5.315    164.795,4.873 165.48,5.413 165.707,5.13 164.663,4.311 163.267,6.109  "/>
	<path fill="#AC162C" d="M165.346,7.96l0.709-0.625l0.098,0.109c0.123,0.145,0.111,0.231,0.022,0.39l-0.354,0.673l0.337,0.379   l0.428-0.857c0.047-0.104,0.092-0.24,0.02-0.339l0.003-0.003c0.22,0.188,0.502,0.178,0.703,0c0.47-0.418,0.085-0.841-0.237-1.204   l-0.317-0.366l-1.709,1.505L165.346,7.96z M166.783,6.694l0.098,0.11c0.148,0.171,0.299,0.374,0.094,0.555   c-0.217,0.188-0.411,0.018-0.553-0.147l-0.097-0.113L166.783,6.694z"/>
	<path fill="#AC162C" d="M167.202,9.92c-0.09-0.151-0.136-0.333-0.142-0.51l-0.37,0.175c0.062,0.222,0.093,0.33,0.216,0.542   c0.229,0.391,0.594,0.631,1.021,0.375c0.659-0.39,0.011-1.153,0.354-1.355c0.206-0.125,0.367,0.01,0.449,0.145   c0.08,0.134,0.126,0.288,0.145,0.443l0.344-0.158c-0.037-0.168-0.1-0.337-0.203-0.504c-0.202-0.338-0.557-0.582-0.988-0.321   c-0.649,0.385,0.009,1.144-0.371,1.362C167.479,10.221,167.289,10.07,167.202,9.92"/>
	
		<rect x="167.767" y="11.283" transform="matrix(-0.9259 0.3778 -0.3778 -0.9259 329.6403 -41.6532)" fill="#AC162C" width="2.278" height="0.455"/>
	<polygon fill="#AC162C" points="168.412,13.588 168.511,14.026 170.378,13.567 170.53,14.195 170.877,14.109 170.456,12.417    170.11,12.505 170.261,13.13  "/>
	<polygon fill="#AC162C" points="168.819,16.12 168.845,16.571 169.743,16.522 171.158,17.248 171.139,16.774 170.152,16.285    171.078,15.702 171.049,15.173 169.715,16.072  "/>
	<polygon fill="#AC162C" points="141.884,21.55 142.222,21.447 142.014,20.71 142.554,20.553 142.777,21.329 143.121,21.231    142.771,20.014 140.582,20.647 140.715,21.083 141.674,20.807  "/>
	<path fill="#AC162C" d="M143.837,22.813c-0.316-0.647-0.914-0.788-1.532-0.483c-0.63,0.309-0.897,0.869-0.578,1.523   c0.317,0.649,0.939,0.784,1.55,0.481C143.897,24.028,144.154,23.455,143.837,22.813 M143.064,23.906   c-0.361,0.183-0.813,0.207-1.017-0.209c-0.203-0.418,0.098-0.757,0.462-0.939c0.361-0.175,0.81-0.189,1.008,0.216   C143.718,23.379,143.427,23.729,143.064,23.906"/>
	<path fill="#AC162C" d="M144.819,26.967l1.138-0.904l-0.279-0.357l-1.029,0.819c-0.309,0.243-0.579,0.303-0.794,0.03   c-0.221-0.273-0.098-0.53,0.208-0.77l1.022-0.819l-0.278-0.354l-1.141,0.906c-0.471,0.375-0.456,0.806-0.099,1.263   C143.934,27.233,144.34,27.35,144.819,26.967"/>
	<polygon fill="#AC162C" points="147.778,27.703 146.699,29.019 146.692,29.015 147.104,27.146 146.67,26.792 145.231,28.558    145.568,28.833 146.645,27.515 146.648,27.517 146.245,29.39 146.67,29.741 148.114,27.978  "/>
	<path fill="#AC162C" d="M149.529,28.817l-0.559-0.278l-1.013,2.038l0.554,0.277c0.616,0.315,1.275,0.379,1.676-0.43   C150.595,29.618,150.152,29.129,149.529,28.817 M149.769,30.212c-0.224,0.446-0.68,0.534-1.018,0.364l-0.228-0.114l0.7-1.397   l0.228,0.113C149.788,29.351,149.989,29.77,149.769,30.212"/>
	<polygon fill="#AC162C" points="151.02,31.916 152.32,32.265 152.412,31.916 151.55,31.685 151.717,31.065 152.5,31.276    152.59,30.93 151.809,30.72 151.956,30.173 152.806,30.404 152.9,30.059 151.608,29.711  "/>
	<path fill="#AC162C" d="M154.515,30.271l-0.616-0.035l-0.129,2.279l0.618,0.036c0.696,0.036,1.319-0.163,1.37-1.067   C155.81,30.582,155.212,30.311,154.515,30.271 M154.495,32.199l-0.252-0.015l0.088-1.563l0.25,0.016   c0.384,0.023,0.736,0.324,0.706,0.823C155.258,31.955,154.876,32.218,154.495,32.199"/>
	<path fill="#AC162C" d="M158.071,30.072l-0.388,2.416l0.464-0.099l0.075-0.55l0.906-0.194l0.295,0.469l0.491-0.107l-1.347-2.041   L158.071,30.072z M158.282,31.459l0.116-0.989l0.011,0l0.516,0.847L158.282,31.459z"/>
	
		<rect x="160.487" y="31.229" transform="matrix(-0.3404 -0.9403 0.9403 -0.3404 185.8421 193.2834)" fill="#AC162C" width="0.459" height="0.454"/>
	<path fill="#AC162C" d="M161.55,28.863l-0.546,0.297l1.081,2.003l0.545-0.296c0.607-0.333,1.04-0.83,0.607-1.627   C162.807,28.445,162.156,28.531,161.55,28.863 M162.537,30.512l-0.226,0.12l-0.74-1.373l0.223-0.122   c0.333-0.183,0.792-0.11,1.024,0.328C163.057,29.903,162.867,30.329,162.537,30.512"/>
	
		<rect x="163.984" y="29.411" transform="matrix(-0.576 -0.8174 0.8174 -0.576 234.5768 180.9483)" fill="#AC162C" width="0.461" height="0.457"/>
	<polygon fill="#AC162C" points="164.837,26.459 164.739,27.31 165.104,27.362 165.162,26.869 166.394,28.12 166.715,27.804    165.119,26.175  "/>
	<path fill="#AC162C" d="M168.015,25.203c-0.213-0.151-0.446-0.159-0.74-0.003l-0.004-0.003c0.075-0.26-0.047-0.501-0.211-0.628   c-0.308-0.222-0.654-0.032-0.893,0.29c-0.244,0.331-0.271,0.694,0.059,0.939c0.188,0.14,0.43,0.134,0.645,0.008l0.004,0.002   c-0.052,0.304,0.005,0.525,0.206,0.676c0.373,0.278,0.738,0.103,1.009-0.253C168.349,25.869,168.388,25.479,168.015,25.203    M166.977,25.367c-0.135,0.091-0.325,0.202-0.484,0.084c-0.149-0.102-0.124-0.291-0.023-0.43c0.1-0.135,0.257-0.153,0.397-0.051   C166.977,25.055,167.021,25.244,166.977,25.367 M167.808,26.025c-0.103,0.148-0.308,0.201-0.459,0.088   c-0.151-0.117-0.163-0.28-0.129-0.459c0.16-0.116,0.357-0.206,0.538-0.07C167.915,25.699,167.923,25.882,167.808,26.025"/>
	<path fill="#AC162C" d="M169.136,22.817c-0.371-0.189-0.72-0.102-0.914,0.283c-0.092,0.172-0.092,0.331,0.009,0.494l-0.01,0.005   c-0.295-0.163-0.564-0.45-0.393-0.799c0.071-0.14,0.154-0.23,0.264-0.315l-0.312-0.219c-0.112,0.117-0.204,0.243-0.278,0.394   c-0.331,0.657,0.189,1.139,0.741,1.418c0.473,0.237,1.006,0.349,1.288-0.22C169.759,23.397,169.572,23.039,169.136,22.817    M169.225,23.708c-0.094,0.203-0.305,0.199-0.497,0.103c-0.21-0.103-0.347-0.268-0.255-0.464c0.105-0.2,0.327-0.188,0.521-0.088   C169.175,23.348,169.325,23.52,169.225,23.708"/>
	<path fill="#AC162C" d="M170.022,20.346c-0.57-0.168-0.838,0.185-0.919,0.492c-0.031,0.082-0.039,0.148-0.046,0.207l-0.455-0.152   l0.239-0.84l-0.323-0.095l-0.376,1.253l1.176,0.371c-0.003-0.144,0.018-0.273,0.051-0.411c0.079-0.25,0.247-0.47,0.523-0.385   c0.285,0.083,0.324,0.355,0.249,0.583c-0.06,0.189-0.163,0.318-0.243,0.41l0.389,0.129c0.083-0.136,0.159-0.323,0.217-0.493   C170.67,20.852,170.423,20.468,170.022,20.346"/>
	<path fill="#AC162C" d="M131.141,38.921c0.302-0.307,0.697-0.447,1.277-0.46c0.018-0.002,0.025-0.002,0.041-0.002   c0.811,0,1.226,0.2,1.265,0.618l0.003,0.376h0.023h0.168c0.013-0.237,0.037-0.448,0.075-0.629c0.022-0.112,0.055-0.227,0.097-0.346   c-0.049-0.009-0.198-0.046-0.427-0.109c-0.24-0.063-0.444-0.104-0.605-0.126c-0.189-0.026-0.403-0.036-0.614-0.033   c-0.773,0.015-1.399,0.236-1.847,0.667c-0.473,0.446-0.708,1.009-0.708,1.69c0,0.535,0.134,0.979,0.41,1.361   c0.259,0.38,0.691,0.708,1.256,0.874c0.279,0.084,0.57,0.123,0.906,0.123c0.291,0,0.539-0.028,0.781-0.083   c0.24-0.058,0.477-0.148,0.729-0.275l0.119-0.297l-0.049-0.067c-0.168,0.12-0.339,0.209-0.51,0.265   c-0.266,0.09-0.566,0.127-0.887,0.117c-0.599-0.015-1.091-0.207-1.467-0.584c-0.393-0.392-0.59-0.91-0.59-1.555   c0.002-0.369,0.059-0.674,0.153-0.917C130.847,39.281,130.981,39.081,131.141,38.921"/>
	<path fill="#AC162C" d="M137.222,40.162c-0.283-0.28-0.646-0.42-1.085-0.42c-0.475,0-0.855,0.147-1.162,0.454   c-0.301,0.3-0.447,0.689-0.447,1.169c0,0.265,0.048,0.512,0.141,0.744c0.107,0.265,0.314,0.533,0.652,0.7   c0.173,0.084,0.38,0.124,0.631,0.124c0.313,0,0.599-0.073,0.863-0.218c0.262-0.147,0.46-0.348,0.607-0.605   c0.146-0.261,0.212-0.544,0.212-0.854C137.634,40.809,137.497,40.444,137.222,40.162 M136.784,42.426   c-0.16,0.196-0.37,0.294-0.614,0.294c-0.19,0-0.368-0.063-0.533-0.186c-0.165-0.127-0.293-0.328-0.373-0.6   c-0.095-0.271-0.138-0.538-0.138-0.805c0-0.399,0.085-0.698,0.245-0.889c0.16-0.192,0.374-0.288,0.634-0.288   c0.366,0,0.686,0.182,0.882,0.678c0.098,0.249,0.146,0.543,0.146,0.883C137.033,41.926,136.95,42.228,136.784,42.426"/>
	<path fill="#AC162C" d="M139.056,39.942c-0.035,0.032-0.091,0.101-0.176,0.211c-0.081,0.107-0.167,0.22-0.262,0.326   c0.006-0.366,0.02-0.605,0.021-0.637c0-0.022-0.004-0.039-0.016-0.048c-0.006-0.009-0.021-0.015-0.031-0.015   c-0.014,0-0.046,0.01-0.093,0.029c-0.01,0.006-0.019,0.012-0.032,0.018c-0.201,0.086-0.502,0.159-0.904,0.21v0.185h0.001   c0.235-0.002,0.374,0.004,0.403,0.016c0.037,0.009,0.064,0.029,0.079,0.053c0.016,0.022,0.022,0.099,0.025,0.222   c0.014,0.193,0.02,0.377,0.02,0.546c0,0,0,0.405-0.02,1.265c-0.005,0.157-0.027,0.245-0.084,0.29   c-0.019,0.012-0.043,0.021-0.076,0.028c-0.02,0.004-0.149,0.008-0.387,0.011v0.178v0.008c0.476-0.019,0.748-0.02,0.789-0.02   c0.486,0.005,0.846,0.015,0.963,0.02v-0.186c-0.285-0.018-0.456-0.034-0.521-0.056c-0.065-0.021-0.088-0.043-0.102-0.119   c-0.01-0.034-0.016-0.119-0.016-0.25c-0.016-0.373-0.021-0.629-0.021-0.767v-0.332c0-0.268,0.056-0.471,0.173-0.606   c0.11-0.134,0.248-0.202,0.408-0.202c0.192,0,0.314,0.088,0.413,0.291h0.14c0.002-0.216,0.023-0.462,0.063-0.75l-0.021-0.043   C139.535,39.702,139.245,39.775,139.056,39.942"/>
	<path fill="#AC162C" d="M143.232,42.467c-0.012-0.101-0.019-0.29-0.019-0.566v-0.565c0-0.438-0.004-0.707-0.019-0.803   c-0.053-0.322-0.196-0.525-0.501-0.667c-0.298-0.131-0.618-0.147-0.986-0.011l-0.591,0.51c0.009-0.293,0.021-0.491,0.022-0.522   c0-0.022-0.008-0.039-0.016-0.048c-0.011-0.009-0.022-0.015-0.034-0.015c-0.015,0-0.041,0.01-0.086,0.029   c-0.002,0.002-0.006,0.005-0.008,0.005c-0.197,0.092-0.509,0.168-0.936,0.222v0.186h0.023c0.226-0.001,0.354,0.004,0.386,0.016   c0.036,0.009,0.061,0.029,0.074,0.053c0.013,0.022,0.017,0.099,0.023,0.222c0.015,0.193,0.021,0.377,0.021,0.546   c0,0-0.011,0.96-0.021,1.292c-0.007,0.108-0.015,0.183-0.037,0.223c-0.026,0.046-0.077,0.074-0.161,0.077l-0.309,0.002v0.181v0.005   c0.607-0.018,0.82-0.02,0.876-0.02c0.363,0.004,0.617,0.015,0.706,0.02v-0.186c-0.216-0.002-0.338-0.005-0.35-0.008   c-0.067-0.015-0.099-0.044-0.115-0.083c-0.021-0.048-0.035-0.125-0.038-0.232c-0.01-0.343-0.022-1.286-0.022-1.286   c0-0.232,0.03-0.399,0.085-0.498c0.058-0.101,0.151-0.188,0.28-0.262c0.136-0.079,0.281-0.119,0.438-0.119   c0.364,0,0.634,0.192,0.707,0.479c0.029,0.102,0.043,0.321,0.043,0.657v0.539c0,0.139-0.014,0.467-0.043,0.991   c0,0.002,0,0.003,0,0.007c0.392-0.018,0.533-0.02,0.582-0.02c0.225,0.004,0.41,0.013,0.506,0.02v-0.186l-0.332-0.008   C143.289,42.631,143.25,42.593,143.232,42.467"/>
	<path fill="#AC162C" d="M146.017,39.904c-0.19-0.109-0.409-0.162-0.645-0.162c-0.346,0-0.628,0.108-0.927,0.316   c-0.131,0.089-0.227,0.164-0.286,0.233c-0.085,0.095-0.163,0.24-0.227,0.439c-0.067,0.195-0.104,0.417-0.104,0.664   c0,0.626,0.268,1.11,0.717,1.344c0.232,0.117,0.481,0.177,0.766,0.177c0.278,0,0.546-0.07,0.742-0.161   c0.066-0.03,0.175-0.093,0.32-0.186l0.101-0.226l-0.051-0.054c-0.189,0.114-0.347,0.189-0.476,0.237   c-0.318,0.105-0.637,0.079-0.94-0.073c-0.354-0.18-0.561-0.552-0.565-1.167h1.014c0.229,0,0.457-0.007,0.684-0.023   c0.123-0.01,0.26-0.031,0.413-0.059c0.014-0.084,0.021-0.159,0.021-0.218C146.573,40.512,146.4,40.121,146.017,39.904    M145.979,41.052c-0.088,0.011-0.271,0.016-0.558,0.016h-0.039c-0.326-0.006-0.772-0.022-0.94-0.035   c0.002-0.375,0.07-0.647,0.217-0.821c0.148-0.175,0.339-0.26,0.577-0.26c0.455,0,0.746,0.304,0.746,0.981   C145.981,40.96,145.98,41.003,145.979,41.052"/>
	<path fill="#AC162C" d="M147.876,42.613c-0.06-0.052-0.076-0.138-0.076-0.284c-0.001-0.043-0.007-0.343-0.019-0.897l0.007-2.154   c0,0,0.028-1.106,0.031-1.141c0-0.018-0.005-0.033-0.015-0.042c-0.006-0.008-0.018-0.012-0.036-0.012   c-0.015,0-0.038,0.007-0.063,0.017c-0.006,0.003-0.011,0.006-0.016,0.009c-0.193,0.089-0.521,0.165-0.986,0.226v0.182   c0.264,0,0.41,0.006,0.442,0.021c0.021,0.009,0.038,0.022,0.05,0.046c0.015,0.028,0.027,0.17,0.036,0.425   c0.016,0.38,0.021,0.747,0.021,1.103v1.323c-0.013,0.581-0.021,0.884-0.021,0.914c-0.004,0.107-0.02,0.184-0.044,0.224   c-0.024,0.046-0.066,0.074-0.165,0.077l-0.298,0.002v0.18v0.006c0.551-0.019,0.772-0.02,0.816-0.02   c0.406,0.005,0.688,0.015,0.77,0.02v-0.186c-0.229-0.002-0.34-0.005-0.355-0.008C147.917,42.637,147.891,42.625,147.876,42.613"/>
	<path fill="#AC162C" d="M149.805,42.613c-0.061-0.052-0.073-0.138-0.079-0.284c-0.001-0.043-0.008-0.343-0.021-0.897l0.008-2.154   c0,0,0.032-1.106,0.035-1.141c0-0.018-0.004-0.033-0.012-0.042c-0.012-0.008-0.024-0.012-0.043-0.012   c-0.034,0.007-0.091,0.033-0.172,0.063c-0.198,0.074-0.488,0.133-0.896,0.188v0.182c0.27,0,0.412,0.006,0.447,0.021   c0.025,0.009,0.043,0.022,0.05,0.046c0.014,0.028,0.021,0.17,0.032,0.425c0.016,0.38,0.022,0.747,0.022,1.103v1.323   c-0.013,0.581-0.021,0.884-0.022,0.914c-0.004,0.107-0.019,0.184-0.035,0.224c-0.026,0.046-0.072,0.074-0.169,0.077l-0.303,0.002   v0.177v0.009c0.511-0.018,0.746-0.02,0.825-0.02c0.343,0.004,0.616,0.013,0.761,0.02v-0.186c-0.222-0.002-0.338-0.005-0.355-0.008   C149.846,42.637,149.822,42.625,149.805,42.613"/>
	<path fill="#AC162C" d="M156.506,38.304c-0.499,0.017-0.824,0.02-0.915,0.018c-0.153-0.001-0.369-0.009-0.634-0.018v0.008v0.195   c0.242,0.004,0.392,0.015,0.441,0.033c0.058,0.017,0.101,0.046,0.12,0.083c0.024,0.035,0.037,0.157,0.045,0.356   c0.007,0.276,0.015,0.561,0.015,0.85v0.98c0,0.558-0.037,0.912-0.128,1.118c-0.091,0.206-0.251,0.377-0.619,0.494   c-0.183,0.056-0.396,0.088-0.633,0.088c-0.407,0-0.748-0.096-0.944-0.239c-0.126-0.097-0.219-0.215-0.276-0.363   c-0.059-0.146-0.09-0.445-0.09-0.901v-1.178c0.013-0.562,0.021-0.863,0.021-0.907c0.007-0.161,0.021-0.266,0.047-0.308   c0.021-0.032,0.056-0.057,0.109-0.074c0.055-0.018,0.206-0.029,0.449-0.033v-0.203c-0.467,0.014-0.946,0.02-1.054,0.018   c-0.25-0.001-0.516-0.007-0.803-0.018v0.008v0.195c0.247,0.004,0.394,0.015,0.447,0.033c0.052,0.017,0.089,0.046,0.112,0.083   c0.026,0.035,0.042,0.157,0.047,0.357c0.013,0.277,0.018,0.56,0.018,0.85v1.406c0,0.413,0.036,0.702,0.09,0.878   c0.048,0.132,0.134,0.262,0.258,0.388c0.249,0.251,0.741,0.42,1.398,0.42c0.558,0,1.035-0.136,1.327-0.373   c0.197-0.165,0.334-0.346,0.402-0.554c0.075-0.206,0.111-0.576,0.111-1.099V39.83c0.005-0.563,0.014-0.864,0.028-0.908   c0.005-0.162,0.022-0.267,0.045-0.308c0.024-0.032,0.062-0.057,0.108-0.074c0.057-0.018,0.204-0.029,0.455-0.033V38.304z"/>
	<path fill="#AC162C" d="M159.487,42.467c-0.012-0.101-0.02-0.29-0.02-0.566v-0.565c0-0.438-0.012-0.707-0.021-0.803   c-0.05-0.322-0.194-0.525-0.499-0.667c-0.295-0.134-0.618-0.146-0.979-0.011l-0.597,0.51c0.009-0.289,0.018-0.491,0.019-0.522   c0-0.022-0.006-0.039-0.01-0.048c-0.011-0.009-0.021-0.015-0.035-0.015s-0.044,0.01-0.083,0.027c-0.001,0-0.001,0.001-0.002,0.001   c-0.202,0.095-0.516,0.172-0.943,0.227v0.186h0.027c0.218-0.001,0.351,0.004,0.383,0.016c0.031,0.009,0.054,0.029,0.07,0.053   c0.01,0.022,0.022,0.099,0.028,0.222c0.013,0.193,0.019,0.377,0.019,0.546c0,0-0.012,0.96-0.019,1.292   c-0.006,0.108-0.021,0.183-0.049,0.223c-0.021,0.046-0.068,0.074-0.154,0.077l-0.306,0.002v0.181v0.005   c0.609-0.018,0.82-0.02,0.874-0.02c0.372,0.005,0.626,0.015,0.707,0.02v-0.186c-0.222-0.002-0.338-0.005-0.352-0.008   c-0.068-0.015-0.1-0.044-0.118-0.083c-0.019-0.048-0.034-0.125-0.038-0.232c-0.006-0.343-0.019-1.286-0.019-1.286   c0-0.232,0.03-0.399,0.086-0.498c0.055-0.101,0.152-0.188,0.28-0.262c0.13-0.079,0.278-0.119,0.438-0.119   c0.359,0,0.637,0.192,0.706,0.479c0.025,0.102,0.038,0.321,0.038,0.657v0.539c0,0.139-0.013,0.467-0.038,0.991   c0,0.002,0,0.003,0,0.007c0.394-0.018,0.535-0.02,0.575-0.02c0.241,0.004,0.431,0.013,0.512,0.02v-0.186l-0.334-0.008   C159.545,42.631,159.508,42.593,159.487,42.467"/>
	<path fill="#AC162C" d="M161.075,39.056c0.094,0,0.176-0.035,0.249-0.104c0.07-0.07,0.104-0.154,0.104-0.251   c0-0.098-0.034-0.183-0.103-0.254c-0.071-0.07-0.154-0.105-0.251-0.105c-0.098,0-0.186,0.035-0.253,0.105   c-0.07,0.071-0.105,0.156-0.105,0.254c0,0.097,0.035,0.181,0.105,0.251C160.89,39.021,160.978,39.056,161.075,39.056"/>
	<path fill="#AC162C" d="M161.476,42.613c-0.059-0.051-0.077-0.137-0.079-0.284c0-0.043-0.004-0.343-0.016-0.897v-0.581   c0-0.241,0.008-0.588,0.016-1.041l-0.065-0.05c-0.286,0.132-0.628,0.222-1.032,0.271v0.181c0.247,0,0.388,0.008,0.423,0.025   c0.032,0.015,0.057,0.042,0.071,0.071c0.02,0.061,0.032,0.249,0.032,0.563v0.564c-0.016,0.581-0.022,0.884-0.022,0.915   c-0.004,0.108-0.019,0.183-0.046,0.223c-0.026,0.046-0.07,0.074-0.157,0.077l-0.301,0.002v0.179v0.007   c0.551-0.018,0.763-0.02,0.833-0.02c0.351,0.004,0.647,0.014,0.778,0.02v-0.186c-0.222-0.002-0.342-0.005-0.357-0.008   C161.52,42.637,161.496,42.625,161.476,42.613"/>
	<path fill="#AC162C" d="M165.33,39.849c-0.433,0.012-0.636,0.018-0.74,0.016c-0.107-0.004-0.267-0.009-0.478-0.016v0.008v0.175   c0.22,0.003,0.356,0.022,0.41,0.047c0.048,0.03,0.048,0.089,0.028,0.173c-0.033,0.135-0.104,0.327-0.205,0.58   c-0.16,0.396-0.253,0.627-0.295,0.715l-0.314,0.719c0,0,0-0.003-0.004-0.003c-0.146-0.349-0.301-0.716-0.301-0.716l-0.388-0.968   c-0.079-0.207-0.126-0.344-0.126-0.411c0-0.04,0.024-0.07,0.061-0.095c0.039-0.021,0.175-0.038,0.405-0.042v-0.183   c-0.441,0.012-0.77,0.018-0.854,0.016c-0.157-0.004-0.379-0.008-0.647-0.016v0.006v0.177c0.125,0.002,0.203,0.006,0.23,0.018   c0.073,0.018,0.129,0.063,0.207,0.25l0.914,2.131c0.035,0.073,0.092,0.218,0.173,0.433h0.325c0.317-0.747,0.498-1.179,0.555-1.295   l0.303-0.651c0.2-0.411,0.32-0.636,0.344-0.69c0.046-0.076,0.092-0.125,0.136-0.154c0.037-0.022,0.129-0.039,0.261-0.042V39.849z"/>
	<path fill="#AC162C" d="M167.417,39.904c-0.192-0.109-0.4-0.162-0.64-0.162c-0.343,0-0.625,0.108-0.932,0.316   c-0.123,0.089-0.218,0.164-0.281,0.233c-0.09,0.095-0.16,0.24-0.228,0.439c-0.064,0.195-0.099,0.417-0.099,0.664   c0,0.626,0.26,1.11,0.717,1.344c0.222,0.117,0.477,0.177,0.753,0.177c0.288,0,0.549-0.07,0.747-0.161   c0.072-0.03,0.173-0.093,0.32-0.186l0.105-0.226l-0.056-0.054c-0.19,0.112-0.345,0.189-0.468,0.237   c-0.319,0.104-0.646,0.081-0.941-0.073c-0.354-0.18-0.57-0.552-0.579-1.167h1.026c0.223,0,0.453-0.007,0.684-0.023   c0.121-0.01,0.252-0.031,0.405-0.059c0.011-0.084,0.018-0.159,0.018-0.218C167.97,40.512,167.802,40.121,167.417,39.904    M167.387,41.052c-0.09,0.011-0.276,0.016-0.557,0.016c-0.035,0-0.184-0.001-0.655-0.016c-0.165-0.006-0.273-0.012-0.338-0.019   c0.003-0.375,0.083-0.647,0.227-0.821c0.146-0.175,0.341-0.26,0.578-0.26c0.45,0,0.75,0.304,0.75,0.981   C167.392,40.96,167.389,41.003,167.387,41.052"/>
	<path fill="#AC162C" d="M169.877,39.942c-0.029,0.032-0.096,0.101-0.173,0.211c-0.121,0.154-0.207,0.264-0.263,0.326   c0.011-0.429,0.021-0.605,0.021-0.637c0-0.022-0.002-0.039-0.012-0.048c-0.015-0.009-0.024-0.015-0.041-0.015   c-0.047,0.01-0.119,0.048-0.207,0.079c-0.196,0.074-0.464,0.13-0.816,0.178v0.185c0.24-0.002,0.378,0.004,0.41,0.016   c0.028,0.009,0.051,0.029,0.066,0.053c0.014,0.022,0.023,0.099,0.029,0.222c0.017,0.193,0.023,0.377,0.023,0.546   c0,0,0,0.405-0.023,1.265c-0.007,0.157-0.029,0.245-0.08,0.29c-0.016,0.012-0.039,0.021-0.079,0.028   c-0.022,0.004-0.146,0.008-0.392,0.011v0.175v0.011c0.467-0.018,0.734-0.02,0.8-0.02c0.431,0.004,0.777,0.013,0.948,0.02v-0.186   c-0.273-0.018-0.445-0.034-0.515-0.056c-0.058-0.021-0.078-0.043-0.096-0.119c-0.012-0.034-0.017-0.119-0.017-0.25   c-0.012-0.373-0.021-0.629-0.021-0.767v-0.332c0-0.268,0.06-0.471,0.167-0.606c0.11-0.133,0.257-0.202,0.419-0.202   c0.191,0,0.309,0.088,0.401,0.291h0.147c0.003-0.216,0.023-0.462,0.051-0.75l-0.018-0.043   C170.357,39.702,170.065,39.777,169.877,39.942"/>
	<path fill="#AC162C" d="M172.84,41.249c-0.104-0.048-0.283-0.106-0.55-0.174l-0.525-0.129c-0.2-0.061-0.294-0.125-0.361-0.245   c-0.033-0.058-0.051-0.132-0.051-0.216c0-0.148,0.058-0.274,0.167-0.385c0.118-0.114,0.269-0.164,0.452-0.164   c0.391,0,0.595,0.176,0.667,0.286c0.024,0.036,0.043,0.08,0.057,0.13c0.014,0.048,0.024,0.152,0.035,0.305h0.023h0.156   c0.005-0.244,0.015-0.487,0.027-0.721c-0.105-0.056-0.245-0.102-0.422-0.14c-0.218-0.044-0.393-0.056-0.55-0.051   c-0.187,0.011-0.363,0.051-0.523,0.128c-0.378,0.176-0.548,0.47-0.548,0.806c0,0.23,0.083,0.433,0.228,0.558   c0.069,0.066,0.165,0.121,0.281,0.16c0.078,0.032,0.253,0.076,0.519,0.139c0.272,0.058,0.445,0.111,0.523,0.147   c0.164,0.076,0.254,0.219,0.254,0.397c0,0.199-0.071,0.357-0.203,0.47c-0.139,0.113-0.314,0.17-0.535,0.17   c-0.092,0-0.196-0.002-0.293-0.01c-0.131-0.019-0.258-0.07-0.365-0.166c-0.105-0.098-0.153-0.246-0.171-0.388   c-0.01-0.072-0.015-0.169-0.02-0.294h-0.181c0,0.276-0.004,0.458-0.012,0.545c-0.021,0.174-0.041,0.289-0.045,0.321   c0,0.014,0.006,0.025,0.017,0.03c0.01,0.015,0.093,0.041,0.258,0.07c0.311,0.06,0.543,0.086,0.723,0.086   c0.396,0,0.711-0.106,0.947-0.319c0.233-0.212,0.351-0.464,0.351-0.75C173.17,41.559,173.039,41.348,172.84,41.249"/>
	<path fill="#AC162C" d="M174.722,42.613c-0.06-0.051-0.073-0.137-0.077-0.284c-0.002-0.043-0.005-0.343-0.018-0.897v-0.581   c0-0.241,0.009-0.588,0.018-1.041l-0.072-0.05c-0.281,0.134-0.621,0.222-1.033,0.271v0.181c0.255,0,0.395,0.008,0.431,0.025   c0.027,0.015,0.05,0.042,0.062,0.071c0.024,0.061,0.04,0.249,0.04,0.563v0.564c-0.018,0.581-0.021,0.884-0.021,0.915   c-0.011,0.108-0.026,0.183-0.049,0.223c-0.024,0.046-0.068,0.074-0.161,0.077l-0.302,0.002v0.18v0.006   c0.568-0.018,0.779-0.02,0.837-0.02c0.37,0.004,0.669,0.015,0.781,0.02v-0.186c-0.226-0.002-0.343-0.005-0.356-0.008   C174.764,42.637,174.739,42.625,174.722,42.613"/>
	<path fill="#AC162C" d="M174.569,38.952c0.07-0.07,0.105-0.154,0.105-0.251c0-0.099-0.035-0.183-0.104-0.254   c-0.067-0.07-0.155-0.105-0.248-0.105c-0.106,0-0.184,0.035-0.254,0.105c-0.073,0.071-0.104,0.155-0.104,0.254   c0,0.097,0.03,0.181,0.104,0.251C174.203,39.09,174.431,39.09,174.569,38.952"/>
	<path fill="#AC162C" d="M176.322,40.284c0.524-0.004,0.71-0.002,0.834,0l0.069-0.281l-0.023-0.021   c-0.443,0.019-0.592,0.021-0.694,0.021c-0.051-0.001-0.106-0.002-0.186-0.002c0.029-0.603,0.058-0.995,0.079-1.172l-0.079-0.063   c-0.133,0.089-0.311,0.169-0.526,0.246v0.97c-0.123,0.059-0.286,0.13-0.49,0.205v0.119v0.014c0.318-0.019,0.49-0.02,0.49-0.02   s0,1.375-0.005,1.45c-0.011,0.174-0.017,0.334-0.02,0.479c0.014,0.153,0.039,0.263,0.077,0.334c0.076,0.146,0.19,0.237,0.32,0.284   c0.067,0.027,0.159,0.042,0.267,0.042c0.182,0,0.305-0.017,0.466-0.074c0.088-0.086,0.189-0.167,0.284-0.248l-0.035-0.123   c-0.065,0.024-0.127,0.038-0.176,0.046c-0.009,0.003-0.022,0.007-0.031,0.009c-0.052,0.008-0.128,0.012-0.211,0.012   c-0.013-0.002-0.023-0.004-0.036-0.006c-0.206-0.033-0.271-0.083-0.324-0.171c-0.032-0.045-0.053-0.1-0.064-0.161   c-0.01-0.063-0.012-0.255-0.007-0.579L176.322,40.284z"/>
	<path fill="#AC162C" d="M180.626,40.103c0.058-0.043,0.143-0.068,0.249-0.073l0.031-0.181c-0.219,0.01-0.643,0.028-1.223,0v0.006   v0.175c0.222,0.022,0.352,0.042,0.382,0.067c0.056,0.034,0.061,0.099,0.043,0.187c-0.033,0.097-0.128,0.357-0.297,0.769   c-0.165,0.417-0.28,0.7-0.348,0.849l-0.169,0.376c-0.157-0.359-0.505-1.221-0.505-1.221c-0.073-0.187-0.149-0.405-0.233-0.668   c-0.034-0.103-0.054-0.174-0.054-0.206c0-0.056,0.026-0.092,0.08-0.113c0.034-0.011,0.161-0.026,0.377-0.04v-0.181   c-0.361,0.011-0.749,0.018-0.81,0.016c-0.228-0.002-0.457-0.007-0.688-0.016v0.004v0.177c0.151,0.017,0.246,0.038,0.294,0.066   c0.041,0.025,0.08,0.074,0.118,0.153c0.099,0.198,0.218,0.484,0.368,0.856l0.506,1.256c0.095,0.238,0.175,0.454,0.244,0.643   c-0.088,0.239-0.19,0.465-0.298,0.699c-0.079,0.145-0.143,0.252-0.194,0.305c-0.111,0.13-0.239,0.176-0.368,0.176   c-0.048,0-0.08-0.004-0.107-0.007c-0.017-0.003-0.029-0.005-0.039-0.009c-0.065-0.016-0.114-0.059-0.192-0.122h-0.08l-0.164,0.485   c0.143,0.08,0.244,0.106,0.384,0.106c0.287,0,0.537-0.12,0.71-0.358c0.087-0.114,0.197-0.306,0.319-0.579l0.729-1.725   c0.321-0.715,0.543-1.197,0.665-1.44C180.478,40.29,180.564,40.145,180.626,40.103"/>
	<g>
		<path fill="#231F20" d="M59.855,51.11h2.198v7.67c0,3.241-1.565,3.727-3.164,3.727c-0.449,0-0.848-0.067-1.098-0.168l0.183-1.839    c0.218,0.071,0.435,0.083,0.717,0.083c0.631,0,1.164-0.25,1.164-1.704V51.11z"/>
		<path fill="#231F20" d="M69.579,58.26c0,3.409-1.883,4.247-3.116,4.247c-1.948,0-3.112-1.541-3.112-4.195    c0-2.937,1.534-4.248,3.149-4.248C68.412,54.064,69.579,55.686,69.579,58.26z M65.516,58.26c0,1.407,0.217,2.578,0.999,2.578    c0.699,0,0.882-1.376,0.882-2.578c0-1.117-0.184-2.54-0.915-2.54C65.682,55.72,65.516,57.143,65.516,58.26z"/>
		<path fill="#231F20" d="M75.32,62.24c-0.217,0.099-0.764,0.232-1.381,0.232c-2.067,0-3.416-1.436-3.416-4.109    c0-2.519,1.484-4.281,3.731-4.281c0.515,0,0.982,0.125,1.199,0.227l-0.282,1.717c-0.185-0.071-0.45-0.158-0.818-0.158    c-1.048,0-1.661,1.008-1.661,2.427c0,1.484,0.613,2.389,1.629,2.389c0.316,0,0.583-0.05,0.816-0.167L75.32,62.24z"/>
		<path fill="#231F20" d="M78.351,57.779h0.031c0.152-0.469,0.268-0.803,0.417-1.138l1.05-2.434h2.344l-1.962,3.421l2.082,4.745    h-2.43l-1.166-3.358l-0.366,0.702v2.656h-2.181V50.811h2.181V57.779z"/>
		<path fill="#231F20" d="M84.691,59.062c0.032,1.271,0.766,1.739,1.732,1.739c0.616,0,1.167-0.134,1.548-0.268l0.3,1.571    c-0.568,0.218-1.415,0.368-2.249,0.368c-2.215,0-3.428-1.471-3.428-4.028c0-2.745,1.416-4.38,3.263-4.38    c1.746,0,2.761,1.392,2.761,3.861c0,0.587-0.019,0.903-0.06,1.137H84.691z M86.641,57.525c0-1.051-0.266-1.864-0.915-1.864    c-0.719,0-1.002,1.046-1.018,1.864H86.641z"/>
		<path fill="#231F20" d="M91.425,54.207l0.78,4.237c0.099,0.486,0.166,0.937,0.213,1.372h0.046c0.078-0.418,0.118-0.886,0.21-1.336    l0.671-4.273h2.126L93.813,60.5c-0.387,1.538-0.918,3.125-1.802,4.175c-0.702,0.804-1.535,1.186-1.857,1.287l-0.675-1.887    c0.387-0.131,0.755-0.384,1.081-0.682c0.313-0.287,0.532-0.621,0.696-0.971c0.053-0.151,0.103-0.236,0.103-0.351    c0-0.099-0.036-0.201-0.056-0.303l-2.235-7.563H91.425z"/>
		<path fill="#231F20" d="M104.483,62.204c-0.316,0.151-0.934,0.268-1.697,0.268c-2.86,0-4.229-2.373-4.229-5.565    c0-4.244,2.346-5.898,4.527-5.898c0.764,0,1.295,0.151,1.519,0.303l-0.366,1.836c-0.253-0.117-0.532-0.217-1.02-0.217    c-1.234,0-2.347,1.069-2.347,3.859c0,2.693,1.02,3.743,2.347,3.743c0.366,0,0.785-0.085,1.049-0.167L104.483,62.204z"/>
		<path fill="#231F20" d="M105.583,50.811h2.179v11.561h-2.179V50.811z"/>
		<path fill="#231F20" d="M115.286,59.883c0,0.87,0.03,1.72,0.07,2.489h-1.882l-0.119-0.871h-0.035    c-0.379,0.555-1.05,1.006-1.88,1.006c-1.542,0-2.181-1.153-2.181-3.36v-4.94h2.198v4.707c0,1.071,0.199,1.753,0.813,1.753    c0.368,0,0.603-0.282,0.698-0.55c0.085-0.169,0.14-0.419,0.14-0.703v-5.208h2.178V59.883z"/>
		<path fill="#231F20" d="M116.771,62.372c0.033-0.719,0.064-1.637,0.064-2.425v-9.136h2.181v4.218h0.033    c0.4-0.599,0.918-0.965,1.699-0.965c1.584,0,2.299,1.793,2.299,3.997c0,2.858-1.132,4.446-2.65,4.446    c-0.682,0-1.166-0.287-1.596-1.105h-0.049l-0.119,0.97H116.771z M119.015,59.448c0,0.201,0.033,0.401,0.085,0.516    c0.183,0.588,0.48,0.751,0.749,0.751c0.729,0,1.033-0.916,1.033-2.487c0-1.402-0.317-2.321-1.049-2.321    c-0.336,0-0.62,0.346-0.733,0.752c-0.052,0.131-0.085,0.347-0.085,0.501V59.448z"/>
	</g>
	<g>
		<path fill="#231F20" d="M8.831,78.477c-0.318,0.149-0.932,0.269-1.7,0.269c-2.863,0-4.229-2.374-4.229-5.566    c0-4.243,2.347-5.897,4.527-5.897c0.768,0,1.3,0.152,1.515,0.301l-0.365,1.839c-0.25-0.119-0.533-0.218-1.016-0.218    c-1.231,0-2.346,1.07-2.346,3.859c0,2.687,1.014,3.744,2.346,3.744c0.368,0,0.786-0.085,1.051-0.169L8.831,78.477z"/>
		<path fill="#231F20" d="M15.704,74.537c0,3.408-1.881,4.241-3.113,4.241c-1.947,0-3.112-1.535-3.112-4.196    c0-2.938,1.53-4.241,3.146-4.241C14.538,70.34,15.704,71.961,15.704,74.537z M11.643,74.537c0,1.398,0.215,2.57,1,2.57    c0.698,0,0.881-1.37,0.881-2.57c0-1.123-0.183-2.542-0.917-2.542C11.808,71.994,11.643,73.414,11.643,74.537z"/>
		<path fill="#231F20" d="M16.936,67.083h2.182v11.56h-2.182V67.083z"/>
		<path fill="#231F20" d="M20.682,67.083h2.18v11.56h-2.18V67.083z"/>
		<path fill="#231F20" d="M26.241,75.338c0.033,1.269,0.766,1.735,1.729,1.735c0.617,0,1.168-0.134,1.55-0.266l0.299,1.569    c-0.565,0.218-1.415,0.369-2.248,0.369c-2.213,0-3.429-1.472-3.429-4.024c0-2.744,1.416-4.381,3.265-4.381    c1.745,0,2.761,1.387,2.761,3.861c0,0.583-0.015,0.9-0.064,1.136H26.241z M28.188,73.8c0-1.055-0.266-1.874-0.913-1.874    c-0.717,0-1,1.052-1.018,1.874H28.188z"/>
		<path fill="#231F20" d="M37.411,70.474c-0.033,0.735-0.084,1.604-0.084,2.59v4.662c0,1.754-0.315,2.726-0.981,3.36    c-0.599,0.565-1.447,0.898-2.648,0.898c-0.748,0-1.447-0.13-2.031-0.38l0.402-1.688c0.414,0.183,0.93,0.351,1.563,0.351    c1.099,0,1.531-0.74,1.531-1.992v-0.498h-0.034c-0.283,0.515-0.848,0.817-1.462,0.817c-1.833,0-2.55-2.006-2.55-3.958    c0-2.728,1.234-4.296,2.748-4.296c0.65,0,1.182,0.334,1.5,0.952h0.032l0.119-0.819H37.411z M35.163,73.446    c0-0.215-0.034-0.433-0.082-0.599c-0.099-0.35-0.334-0.672-0.699-0.672c-0.783,0-1.1,1.068-1.1,2.406    c0,1.521,0.431,2.294,1.048,2.294c0.285,0,0.568-0.153,0.733-0.588c0.066-0.185,0.1-0.434,0.1-0.649V73.446z"/>
		<path fill="#231F20" d="M40.656,75.338c0.033,1.269,0.765,1.735,1.73,1.735c0.616,0,1.166-0.134,1.547-0.266l0.304,1.569    c-0.57,0.218-1.418,0.369-2.25,0.369c-2.213,0-3.428-1.472-3.428-4.024c0-2.744,1.413-4.381,3.261-4.381    c1.749,0,2.765,1.387,2.765,3.861c0,0.583-0.017,0.9-0.067,1.136H40.656z M42.605,73.8c0-1.055-0.267-1.874-0.917-1.874    c-0.715,0-0.998,1.052-1.016,1.874H42.605z"/>
		<path fill="#231F20" d="M54.407,74.537c0,3.408-1.885,4.241-3.117,4.241c-1.944,0-3.112-1.535-3.112-4.196    c0-2.938,1.534-4.241,3.149-4.241C53.239,70.34,54.407,71.961,54.407,74.537z M50.346,74.537c0,1.398,0.21,2.57,0.998,2.57    c0.699,0,0.881-1.37,0.881-2.57c0-1.123-0.182-2.542-0.915-2.542C50.51,71.994,50.346,73.414,50.346,74.537z"/>
		<path fill="#231F20" d="M56.021,78.643v-6.616h-1.099v-1.554h1.099V70.14c0-0.918,0.182-1.773,0.83-2.438    c0.482-0.504,1.183-0.754,1.948-0.754c0.566,0,0.999,0.082,1.317,0.185l-0.251,1.703c-0.167-0.064-0.398-0.101-0.664-0.101    c-0.734,0-0.999,0.637-0.999,1.355v0.384h1.414v1.554h-1.414v6.616H56.021z"/>
		<path fill="#231F20" d="M64.642,78.643l-2.515-11.262h2.417l0.798,4.864c0.2,1.201,0.433,2.59,0.582,3.91h0.034    c0.148-1.335,0.331-2.691,0.533-3.96l0.764-4.813h2.395l-2.561,11.262H64.642z"/>
		<path fill="#231F20" d="M71.863,75.338c0.04,1.269,0.767,1.735,1.735,1.735c0.616,0,1.163-0.134,1.547-0.266l0.301,1.569    c-0.567,0.218-1.416,0.369-2.251,0.369c-2.214,0-3.423-1.472-3.423-4.024c0-2.744,1.413-4.381,3.256-4.381    c1.749,0,2.768,1.387,2.768,3.861c0,0.583-0.018,0.9-0.068,1.136H71.863z M73.813,73.8c0-1.055-0.265-1.874-0.916-1.874    c-0.716,0-0.994,1.052-1.016,1.874H73.813z"/>
		<path fill="#231F20" d="M79.589,68.269v2.205h1.599v1.554h-1.599v3.723c0,0.957,0.401,1.189,0.834,1.189    c0.215,0,0.381-0.016,0.564-0.05l0.017,1.705c-0.302,0.085-0.749,0.151-1.333,0.151c-0.631,0-1.182-0.151-1.564-0.52    c-0.449-0.433-0.699-1.053-0.699-2.336v-3.862h-0.964v-1.554h0.964v-1.687L79.589,68.269z"/>
		<path fill="#231F20" d="M83.919,75.338c0.032,1.269,0.764,1.735,1.731,1.735c0.614,0,1.165-0.134,1.547-0.266l0.3,1.569    c-0.565,0.218-1.416,0.369-2.25,0.369c-2.214,0-3.428-1.472-3.428-4.024c0-2.744,1.415-4.381,3.261-4.381    c1.75,0,2.767,1.387,2.767,3.861c0,0.583-0.017,0.9-0.07,1.136H83.919z M85.865,73.8c0-1.055-0.266-1.874-0.915-1.874    c-0.716,0-0.999,1.052-1.018,1.874H85.865z"/>
		<path fill="#231F20" d="M89.057,72.93c0-0.821-0.03-1.705-0.059-2.457h1.9l0.103,1.187h0.063c0.371-0.87,0.997-1.32,1.62-1.32    c0.214,0,0.326,0,0.44,0.034v2.169c-0.115-0.03-0.256-0.03-0.44-0.03c-0.482,0-1.085,0.314-1.351,1.167    c-0.032,0.183-0.074,0.467-0.074,0.816v4.146h-2.203V72.93z"/>
		<path fill="#231F20" d="M96.149,68.302c0.016,0.701-0.483,1.186-1.137,1.186c-0.617,0-1.103-0.485-1.084-1.186    c-0.019-0.736,0.514-1.188,1.114-1.188C95.667,67.113,96.149,67.565,96.149,68.302z M93.974,78.643v-8.169h2.176v8.169H93.974z"/>
		<path fill="#231F20" d="M97.685,72.93c0-0.903-0.052-1.688-0.067-2.457H99.5l0.094,0.936h0.036    c0.435-0.651,1.13-1.069,1.981-1.069c1.549,0,2.165,1.236,2.165,3.06v5.243h-2.183v-5.112c0-0.704-0.164-1.356-0.795-1.356    c-0.366,0-0.668,0.253-0.814,0.735c-0.068,0.168-0.124,0.436-0.124,0.757v4.975h-2.175V72.93z"/>
		<path fill="#231F20" d="M108.954,78.643l-0.114-0.802h-0.035c-0.453,0.636-1.084,0.936-1.799,0.936    c-1.231,0-2.149-1.037-2.149-2.49c0-2.139,1.881-3.024,3.731-3.043v-0.18c0-0.635-0.383-1.102-1.151-1.102    c-0.649,0-1.182,0.167-1.662,0.467l-0.402-1.471c0.45-0.266,1.4-0.617,2.532-0.617c2.478,0,2.882,1.738,2.882,3.393v3.04    c0,0.652,0.029,1.317,0.128,1.87H108.954z M108.654,74.666c-0.732,0.017-1.733,0.254-1.733,1.39c0,0.82,0.448,1.117,0.782,1.117    c0.353,0,0.751-0.216,0.899-0.701c0.033-0.116,0.052-0.251,0.052-0.383V74.666z"/>
		<path fill="#231F20" d="M112.317,72.93c0-0.821-0.038-1.705-0.07-2.457h1.897l0.118,1.187h0.05c0.366-0.87,1.013-1.32,1.613-1.32    c0.218,0,0.333,0,0.466,0.034v2.169c-0.133-0.03-0.282-0.03-0.466-0.03c-0.465,0-1.08,0.314-1.331,1.167    c-0.05,0.183-0.083,0.467-0.083,0.816v4.146h-2.195V72.93z"/>
		<path fill="#231F20" d="M119.257,70.474l0.796,4.248c0.085,0.479,0.153,0.93,0.214,1.367h0.036    c0.07-0.419,0.131-0.888,0.202-1.339l0.681-4.276h2.132l-1.666,6.299c-0.396,1.538-0.93,3.125-1.812,4.176    c-0.686,0.803-1.518,1.188-1.85,1.289l-0.665-1.889c0.381-0.135,0.749-0.387,1.083-0.687c0.297-0.281,0.533-0.616,0.681-0.969    c0.065-0.151,0.117-0.235,0.117-0.35c0-0.099-0.033-0.201-0.065-0.299l-2.238-7.57H119.257z"/>
		<path fill="#231F20" d="M133.808,74.7c-0.058-1.069-0.133-2.524-0.104-3.723h-0.044c-0.199,1.199-0.502,2.59-0.715,3.457    l-0.978,4.025h-1.537l-0.94-3.961c-0.219-0.901-0.513-2.302-0.677-3.52h-0.061c-0.024,1.218-0.087,2.638-0.163,3.759l-0.183,3.908    h-1.872l0.805-11.262h2.296l0.9,4.079c0.324,1.42,0.611,2.672,0.81,3.941h0.033c0.169-1.253,0.406-2.521,0.712-3.941l0.882-4.079    h2.301l0.682,11.262h-1.945L133.808,74.7z"/>
		<path fill="#231F20" d="M139.165,75.338c0.033,1.269,0.763,1.735,1.73,1.735c0.618,0,1.161-0.134,1.55-0.266l0.296,1.569    c-0.568,0.218-1.41,0.369-2.245,0.369c-2.213,0-3.428-1.472-3.428-4.024c0-2.744,1.414-4.381,3.264-4.381    c1.743,0,2.759,1.387,2.759,3.861c0,0.583-0.018,0.9-0.06,1.136H139.165z M141.11,73.8c0-1.055-0.264-1.874-0.911-1.874    c-0.717,0-1.001,1.052-1.018,1.874H141.11z"/>
		<path fill="#231F20" d="M150.232,67.083v9.137c0,0.785,0.04,1.671,0.067,2.422h-1.881l-0.114-0.917h-0.041    c-0.291,0.567-0.944,1.052-1.688,1.052c-1.737,0-2.533-1.921-2.533-4.21c0-2.84,1.229-4.227,2.61-4.227    c0.716,0,1.17,0.351,1.369,0.819h0.032v-4.076H150.232z M148.054,73.614c0-0.15,0-0.314-0.016-0.48    c-0.083-0.506-0.349-0.958-0.78-0.958c-0.771,0-1.049,1.125-1.049,2.443c0,1.554,0.412,2.372,1.028,2.372    c0.269,0,0.585-0.151,0.752-0.719c0.049-0.116,0.064-0.298,0.064-0.503V73.614z"/>
		<path fill="#231F20" d="M153.945,68.302c0.016,0.701-0.484,1.186-1.147,1.186c-0.602,0-1.101-0.485-1.083-1.186    c-0.018-0.736,0.517-1.188,1.114-1.188C153.461,67.113,153.945,67.565,153.945,68.302z M151.766,78.643v-8.169h2.18v8.169H151.766    z"/>
		<path fill="#231F20" d="M159.983,78.51c-0.211,0.102-0.759,0.236-1.377,0.236c-2.063,0-3.413-1.438-3.413-4.109    c0-2.527,1.484-4.281,3.728-4.281c0.517,0,0.984,0.118,1.204,0.218l-0.287,1.72c-0.184-0.064-0.448-0.148-0.816-0.148    c-1.046,0-1.662,1-1.662,2.421c0,1.488,0.616,2.389,1.633,2.389c0.316,0,0.582-0.051,0.813-0.164L159.983,78.51z"/>
		<path fill="#231F20" d="M163.032,68.302c0.02,0.701-0.478,1.186-1.143,1.186c-0.605,0-1.101-0.485-1.084-1.186    c-0.017-0.736,0.516-1.188,1.115-1.188C162.555,67.113,163.032,67.565,163.032,68.302z M160.853,78.643v-8.169h2.18v8.169H160.853    z"/>
		<path fill="#231F20" d="M164.567,72.93c0-0.903-0.05-1.688-0.068-2.457h1.877l0.106,0.936h0.031    c0.432-0.651,1.129-1.069,1.977-1.069c1.556,0,2.168,1.236,2.168,3.06v5.243h-2.186v-5.112c0-0.704-0.168-1.356-0.792-1.356    c-0.368,0-0.666,0.253-0.815,0.735c-0.067,0.168-0.121,0.436-0.121,0.757v4.975h-2.177V72.93z"/>
		<path fill="#231F20" d="M174,75.338c0.033,1.269,0.772,1.735,1.735,1.735c0.617,0,1.166-0.134,1.548-0.266l0.301,1.569    c-0.569,0.218-1.417,0.369-2.246,0.369c-2.219,0-3.435-1.472-3.435-4.024c0-2.744,1.416-4.381,3.267-4.381    c1.75,0,2.763,1.387,2.763,3.861c0,0.583-0.017,0.9-0.065,1.136H174z M175.949,73.8c0-1.055-0.263-1.874-0.915-1.874    c-0.712,0-1.001,1.052-1.017,1.874H175.949z"/>
	</g>
	<g>
		<path fill="#231F20" d="M46.257,94.916l-0.118-0.802h-0.031c-0.449,0.633-1.083,0.936-1.797,0.936    c-1.233,0-2.147-1.036-2.147-2.487c0-2.141,1.881-3.027,3.726-3.043v-0.185c0-0.636-0.381-1.104-1.147-1.104    c-0.648,0-1.183,0.169-1.665,0.468l-0.4-1.468c0.45-0.269,1.399-0.62,2.533-0.62c2.479,0,2.878,1.737,2.878,3.392v3.04    c0,0.653,0.034,1.322,0.134,1.872H46.257z M45.957,90.938c-0.731,0.02-1.73,0.25-1.73,1.386c0,0.818,0.45,1.122,0.781,1.122    c0.35,0,0.75-0.22,0.899-0.7c0.033-0.118,0.05-0.251,0.05-0.385V90.938z"/>
		<path fill="#231F20" d="M49.638,89.203c0-0.901-0.054-1.688-0.07-2.458h1.88l0.101,0.936h0.037    c0.432-0.651,1.13-1.069,1.977-1.069c1.551,0,2.167,1.238,2.167,3.059v5.245h-2.181v-5.112c0-0.701-0.168-1.354-0.798-1.354    c-0.365,0-0.667,0.25-0.815,0.738c-0.068,0.165-0.121,0.432-0.121,0.751v4.978h-2.176V89.203z"/>
		<path fill="#231F20" d="M63.169,83.354v9.141c0,0.785,0.034,1.668,0.068,2.421h-1.879l-0.122-0.919h-0.032    c-0.297,0.568-0.949,1.053-1.697,1.053c-1.732,0-2.53-1.921-2.53-4.211c0-2.84,1.23-4.227,2.611-4.227    c0.717,0,1.166,0.351,1.364,0.818h0.036v-4.076H63.169z M60.99,89.888c0-0.15,0-0.318-0.021-0.486    c-0.081-0.5-0.348-0.952-0.779-0.952c-0.766,0-1.049,1.12-1.049,2.441c0,1.552,0.416,2.372,1.031,2.372    c0.267,0,0.583-0.149,0.75-0.72c0.047-0.12,0.068-0.303,0.068-0.499V89.888z"/>
		<path fill="#231F20" d="M67.547,83.656h2.178v9.405h2.885v1.855h-5.063V83.656z"/>
		<path fill="#231F20" d="M75.853,84.571c0.017,0.704-0.482,1.189-1.148,1.189c-0.599,0-1.101-0.485-1.083-1.189    c-0.018-0.731,0.515-1.181,1.118-1.181C75.37,83.39,75.853,83.84,75.853,84.571z M73.673,94.916v-8.171h2.179v8.171H73.673z"/>
		<path fill="#231F20" d="M77.766,94.916v-6.615h-1.098v-1.556h1.098v-0.333c0-0.919,0.183-1.771,0.833-2.438    c0.482-0.501,1.181-0.753,1.947-0.753c0.565,0,0.998,0.085,1.315,0.184l-0.25,1.704c-0.167-0.064-0.398-0.1-0.665-0.1    c-0.733,0-0.999,0.634-0.999,1.354v0.384h1.415v1.556h-1.415v6.615H77.766z"/>
		<path fill="#231F20" d="M83.842,91.607c0.034,1.27,0.765,1.738,1.734,1.738c0.613,0,1.164-0.134,1.546-0.267l0.298,1.57    c-0.565,0.217-1.415,0.366-2.247,0.366c-2.214,0-3.43-1.467-3.43-4.024c0-2.741,1.416-4.379,3.263-4.379    c1.748,0,2.765,1.387,2.765,3.859c0,0.586-0.015,0.902-0.069,1.136H83.842z M85.789,90.073c0-1.054-0.268-1.871-0.914-1.871    c-0.715,0-1,1.05-1.015,1.871H85.789z"/>
		<path fill="#231F20" d="M91.609,92.678c0.426,0.253,1.203,0.437,1.838,0.437c1.042,0,1.534-0.536,1.534-1.272    c0-0.819-0.492-1.218-1.451-1.838c-1.522-0.936-2.105-2.123-2.105-3.14c0-1.804,1.176-3.309,3.537-3.309    c0.733,0,1.43,0.2,1.761,0.4l-0.349,1.887c-0.311-0.201-0.794-0.384-1.438-0.384c-0.933,0-1.367,0.569-1.367,1.169    c0,0.668,0.326,1.021,1.533,1.757c1.492,0.903,2.044,2.038,2.044,3.223c0,2.055-1.523,3.408-3.711,3.408    c-0.894,0-1.778-0.232-2.146-0.45L91.609,92.678z"/>
		<path fill="#231F20" d="M102.868,94.783c-0.214,0.099-0.763,0.232-1.38,0.232c-2.067,0-3.414-1.435-3.414-4.109    c0-2.521,1.483-4.278,3.729-4.278c0.516,0,0.982,0.117,1.197,0.218l-0.284,1.724c-0.182-0.071-0.445-0.153-0.814-0.153    c-1.049,0-1.666,1.002-1.666,2.422c0,1.485,0.617,2.388,1.634,2.388c0.313,0,0.584-0.048,0.814-0.167L102.868,94.783z"/>
		<path fill="#231F20" d="M105.915,84.571c0.017,0.704-0.483,1.189-1.145,1.189c-0.604,0-1.107-0.485-1.085-1.189    c-0.022-0.731,0.512-1.181,1.115-1.181C105.432,83.39,105.915,83.84,105.915,84.571z M103.736,94.916v-8.171h2.179v8.171H103.736z    "/>
		<path fill="#231F20" d="M109.26,91.607c0.034,1.27,0.764,1.738,1.73,1.738c0.618,0,1.168-0.134,1.548-0.267l0.302,1.57    c-0.57,0.217-1.414,0.366-2.247,0.366c-2.217,0-3.429-1.467-3.429-4.024c0-2.741,1.416-4.379,3.267-4.379    c1.742,0,2.761,1.387,2.761,3.859c0,0.586-0.019,0.902-0.07,1.136H109.26z M111.206,90.073c0-1.054-0.264-1.871-0.918-1.871    c-0.714,0-0.994,1.05-1.01,1.871H111.206z"/>
		<path fill="#231F20" d="M114.421,89.203c0-0.901-0.05-1.688-0.063-2.458h1.879l0.098,0.936h0.033    c0.435-0.651,1.135-1.069,1.98-1.069c1.55,0,2.166,1.238,2.166,3.059v5.245h-2.182v-5.112c0-0.701-0.167-1.354-0.798-1.354    c-0.366,0-0.667,0.25-0.816,0.738c-0.064,0.165-0.114,0.432-0.114,0.751v4.978h-2.182V89.203z"/>
		<path fill="#231F20" d="M126.558,94.783c-0.216,0.099-0.767,0.232-1.382,0.232c-2.067,0-3.415-1.435-3.415-4.109    c0-2.521,1.48-4.278,3.73-4.278c0.517,0,0.978,0.117,1.201,0.218l-0.281,1.724c-0.186-0.071-0.456-0.153-0.824-0.153    c-1.044,0-1.66,1.002-1.66,2.422c0,1.485,0.616,2.388,1.626,2.388c0.32,0,0.586-0.048,0.823-0.167L126.558,94.783z"/>
		<path fill="#231F20" d="M129.241,91.607c0.024,1.27,0.753,1.738,1.729,1.738c0.609,0,1.153-0.134,1.542-0.267l0.301,1.57    c-0.557,0.217-1.416,0.366-2.247,0.366c-2.209,0-3.427-1.467-3.427-4.024c0-2.741,1.414-4.379,3.264-4.379    c1.737,0,2.76,1.387,2.76,3.859c0,0.586-0.014,0.902-0.061,1.136H129.241z M131.188,90.073c0-1.054-0.274-1.871-0.917-1.871    c-0.714,0-1.006,1.05-1.017,1.871H131.188z"/>
		<path fill="#231F20" d="M134.33,92.945c0.312,0.197,0.916,0.436,1.466,0.436c0.563,0,0.882-0.252,0.882-0.736    c0-0.418-0.233-0.685-0.952-1.104c-1.327-0.751-1.648-1.602-1.648-2.353c0-1.472,1.048-2.575,2.681-2.575    c0.679,0,1.212,0.169,1.651,0.368l-0.383,1.605c-0.317-0.184-0.701-0.335-1.133-0.335c-0.548,0-0.817,0.335-0.817,0.7    c0,0.368,0.186,0.571,0.951,1.02c1.2,0.687,1.644,1.539,1.644,2.474c0,1.671-1.199,2.572-2.875,2.572    c-0.686,0-1.483-0.183-1.871-0.466L134.33,92.945z"/>
	</g>
	<g>
		<path fill="#231F20" d="M13.673,101.058H12.7v-1.062h0.973V101.058z M12.745,102.226h0.889v5.415h-0.889V102.226z"/>
		<path fill="#231F20" d="M15.005,103.395c0-0.393-0.032-0.789-0.041-1.169h0.855l0.032,0.806h0.02    c0.287-0.616,0.742-0.881,1.367-0.881c0.94,0,1.575,0.541,1.575,1.732v3.757h-0.887v-3.492c0-0.859-0.316-1.23-0.889-1.23    c-0.698,0-1.142,0.486-1.142,1.462v3.259h-0.891V103.395z"/>
		<path fill="#231F20" d="M25.815,103.172c-0.308-0.17-0.613-0.253-1.026-0.253c-0.867,0-1.481,0.602-1.481,2.069    c0,1.253,0.592,1.966,1.459,1.966c0.424,0,0.784-0.13,1.091-0.287l0.042,0.816c-0.265,0.117-0.741,0.232-1.133,0.232    c-1.609,0-2.39-1.199-2.39-2.728c0-1.751,0.909-2.837,2.412-2.837c0.37,0,0.782,0.075,1.069,0.214L25.815,103.172z"/>
		<path fill="#231F20" d="M28.659,102.151c1.428,0,2.171,1.086,2.171,2.784c0,1.699-0.743,2.781-2.171,2.781    c-1.427,0-2.169-1.082-2.169-2.781C26.489,103.237,27.232,102.151,28.659,102.151 M28.659,106.994    c0.847,0,1.238-0.699,1.238-2.059s-0.391-2.06-1.238-2.06c-0.846,0-1.238,0.7-1.238,2.06S27.813,106.994,28.659,106.994"/>
		<rect x="31.934" y="99.679" fill="#231F20" width="0.891" height="7.962"/>
		<rect x="34.286" y="99.679" fill="#231F20" width="0.887" height="7.962"/>
		<path fill="#231F20" d="M36.757,102.595c0.445-0.282,0.995-0.444,1.524-0.444c0.792,0,1.27,0.344,1.437,0.512    c0.236,0.232,0.467,0.561,0.467,1.327v2.824c0,0.321,0.021,0.636,0.042,0.827h-0.804l-0.052-0.733h-0.023    c-0.243,0.415-0.688,0.808-1.512,0.808c-0.887,0-1.555-0.519-1.555-1.56c0-1.051,0.687-1.826,2.54-1.826h0.517v-0.245    c0-0.404-0.031-0.636-0.201-0.871c-0.18-0.246-0.53-0.339-0.899-0.339c-0.551,0-1.081,0.223-1.387,0.561L36.757,102.595z     M39.339,104.988c-0.16-0.02-0.381-0.02-0.625-0.02c-1.048,0-1.546,0.497-1.546,1.123c0,0.576,0.298,0.949,0.91,0.949    c0.774,0,1.261-0.629,1.261-1.372V104.988z"/>
		<path fill="#231F20" d="M41.358,99.679h0.889v3.29h0.02c0.36-0.57,0.762-0.817,1.376-0.817c1.11,0,1.861,0.916,1.861,2.784    c0,1.867-0.75,2.781-1.861,2.781c-0.784,0-1.185-0.447-1.417-0.868h-0.021l-0.033,0.793h-0.856    c0.009-0.327,0.043-0.668,0.043-0.996V99.679z M43.433,106.994c0.812,0,1.182-0.699,1.182-2.059s-0.37-2.06-1.182-2.06    c-0.816,0-1.186,0.7-1.186,2.06S42.617,106.994,43.433,106.994"/>
		<path fill="#231F20" d="M48.432,102.151c1.429,0,2.171,1.086,2.171,2.784c0,1.699-0.743,2.781-2.171,2.781    c-1.425,0-2.167-1.082-2.167-2.781C46.265,103.237,47.006,102.151,48.432,102.151 M48.432,106.994    c0.848,0,1.236-0.699,1.236-2.059s-0.389-2.06-1.236-2.06c-0.847,0-1.236,0.7-1.236,2.06S47.585,106.994,48.432,106.994"/>
		<path fill="#231F20" d="M51.624,103.395c0-0.393-0.028-0.789-0.038-1.169h0.854l0.033,0.85h0.021    c0.284-0.66,0.74-0.925,1.533-0.925v0.881c-0.106-0.02-0.22-0.029-0.336-0.029c-0.687,0-1.176,0.595-1.176,1.773v2.865h-0.89    V103.395z"/>
		<path fill="#231F20" d="M54.966,102.595c0.445-0.282,0.994-0.444,1.524-0.444c0.793,0,1.268,0.344,1.438,0.512    c0.233,0.232,0.464,0.561,0.464,1.327v2.824c0,0.321,0.023,0.636,0.044,0.827h-0.803l-0.055-0.733h-0.021    c-0.245,0.415-0.688,0.808-1.514,0.808c-0.888,0-1.554-0.519-1.554-1.56c0-1.051,0.687-1.826,2.538-1.826h0.521v-0.245    c0-0.404-0.033-0.636-0.202-0.871c-0.18-0.246-0.528-0.339-0.899-0.339c-0.551,0-1.079,0.223-1.386,0.561L54.966,102.595z     M57.549,104.988c-0.159-0.02-0.381-0.02-0.626-0.02c-1.048,0-1.544,0.497-1.544,1.123c0,0.576,0.298,0.949,0.912,0.949    c0.772,0,1.259-0.629,1.259-1.372V104.988z"/>
		<path fill="#231F20" d="M62.031,107.578c-0.212,0.074-0.505,0.137-0.751,0.137c-0.812,0-1.248-0.328-1.248-1.285v-3.481h-0.857    v-0.723h0.857v-1.103l0.889-0.266v1.369h1.11v0.723h-1.11v3.198c0,0.616,0.161,0.847,0.56,0.847c0.226,0,0.381-0.063,0.55-0.135    V107.578z"/>
		<path fill="#231F20" d="M63.796,101.058h-0.973v-1.062h0.973V101.058z M62.867,102.226h0.889v5.415h-0.889V102.226z"/>
		<path fill="#231F20" d="M67.035,102.151c1.426,0,2.165,1.086,2.165,2.784c0,1.699-0.739,2.781-2.165,2.781    c-1.43,0-2.172-1.082-2.172-2.781C64.862,103.237,65.605,102.151,67.035,102.151 M67.035,106.994c0.845,0,1.237-0.699,1.237-2.059    s-0.392-2.06-1.237-2.06c-0.85,0-1.238,0.7-1.238,2.06S66.185,106.994,67.035,106.994"/>
		<path fill="#231F20" d="M70.229,103.395c0-0.393-0.036-0.789-0.047-1.169h0.855l0.032,0.806h0.026    c0.285-0.616,0.739-0.881,1.362-0.881c0.942,0,1.579,0.541,1.579,1.732v3.757h-0.889v-3.492c0-0.859-0.319-1.23-0.887-1.23    c-0.698,0-1.142,0.486-1.142,1.462v3.259h-0.889V103.395z"/>
		<polygon fill="#231F20" points="82.959,107.641 81.945,107.641 80.812,103.067 80.79,103.067 79.753,107.641 78.738,107.641     77.311,102.226 78.24,102.226 79.268,106.753 79.289,106.753 80.314,102.226 81.372,102.226 82.44,106.753 82.46,106.753     83.479,102.226 84.365,102.226   "/>
		<path fill="#231F20" d="M86.12,101.058h-0.974v-1.062h0.974V101.058z M85.188,102.226h0.889v5.415h-0.889V102.226z"/>
		<path fill="#231F20" d="M89.831,107.578c-0.205,0.074-0.512,0.137-0.747,0.137c-0.819,0-1.249-0.328-1.249-1.285v-3.481h-0.859    v-0.723h0.859v-1.103l0.888-0.266v1.369h1.107v0.723h-1.107v3.198c0,0.616,0.153,0.847,0.564,0.847    c0.212,0,0.369-0.063,0.543-0.135V107.578z"/>
		<path fill="#231F20" d="M90.577,99.679h0.901v3.29h0.005c0.234-0.458,0.71-0.817,1.329-0.817c0.954,0,1.568,0.541,1.568,1.732    v3.757h-0.89v-3.492c0-0.859-0.302-1.23-0.892-1.23c-0.69,0-1.121,0.486-1.121,1.462v3.259h-0.901V99.679z"/>
		<path fill="#231F20" d="M102.748,107.494c-0.447,0.136-0.916,0.221-1.346,0.221c-2.341,0-3.324-1.782-3.324-3.79    c0-2.317,1.342-3.77,3.274-3.77c0.528,0,1.057,0.094,1.396,0.267v0.913c-0.41-0.256-0.868-0.373-1.388-0.373    c-1.205,0-2.307,0.969-2.307,2.774c0,1.91,0.76,3.171,2.367,3.171c0.476,0,0.943-0.125,1.328-0.349V107.494z"/>
		<path fill="#231F20" d="M105.796,102.151c1.43,0,2.17,1.086,2.17,2.784c0,1.699-0.74,2.781-2.17,2.781    c-1.428,0-2.165-1.082-2.165-2.781C103.632,103.237,104.369,102.151,105.796,102.151 M105.796,106.994    c0.849,0,1.237-0.699,1.237-2.059s-0.388-2.06-1.237-2.06c-0.84,0-1.238,0.7-1.238,2.06S104.956,106.994,105.796,106.994"/>
		<path fill="#231F20" d="M108.991,103.395c0-0.393-0.033-0.789-0.04-1.169h0.856l0.029,0.85h0.022    c0.284-0.66,0.746-0.925,1.533-0.925v0.881c-0.104-0.02-0.221-0.029-0.334-0.029c-0.689,0-1.177,0.595-1.177,1.773v2.865h-0.889    V103.395z"/>
		<path fill="#231F20" d="M112.125,103.395c0-0.393-0.037-0.789-0.047-1.169h0.861l0.026,0.806h0.024    c0.287-0.616,0.741-0.881,1.368-0.881c0.937,0,1.572,0.541,1.572,1.732v3.757h-0.885v-3.492c0-0.859-0.32-1.23-0.891-1.23    c-0.697,0-1.14,0.486-1.14,1.462v3.259h-0.889V103.395z"/>
		<path fill="#231F20" d="M117.885,105.198c0,1.256,0.49,1.842,1.47,1.842c0.445,0,0.93-0.226,1.238-0.448l0.042,0.807    c-0.421,0.202-0.971,0.317-1.51,0.317c-1.429,0-2.168-1.082-2.168-2.781c0-1.698,0.739-2.783,2.08-2.783    c1.218,0,1.895,0.977,1.895,2.571v0.476H117.885z M120.042,104.521c0-1.125-0.35-1.688-1.057-1.688    c-0.571,0-1.079,0.424-1.1,1.688H120.042z"/>
		<rect x="121.998" y="99.679" fill="#231F20" width="0.888" height="7.962"/>
		<rect x="124.344" y="99.679" fill="#231F20" width="0.89" height="7.962"/>
		<path fill="#231F20" d="M133.949,104.912c0,0.734-0.044,1.138-0.291,1.66c-0.314,0.613-0.959,1.143-2.031,1.143    c-1.066,0-1.703-0.53-2.016-1.143c-0.251-0.522-0.301-0.926-0.301-1.66v-4.682h0.939v4.822c0,1.159,0.507,1.902,1.377,1.902    c0.878,0,1.387-0.743,1.387-1.902v-4.822h0.936V104.912z"/>
		<path fill="#231F20" d="M135.408,103.395c0-0.393-0.036-0.789-0.048-1.169h0.857l0.033,0.806h0.021    c0.282-0.616,0.744-0.881,1.361-0.881c0.946,0,1.577,0.541,1.577,1.732v3.757h-0.89v-3.492c0-0.859-0.316-1.23-0.889-1.23    c-0.698,0-1.137,0.486-1.137,1.462v3.259h-0.888V103.395z"/>
		<path fill="#231F20" d="M141.518,101.058h-0.972v-1.062h0.972V101.058z M140.582,102.226h0.893v5.415h-0.893V102.226z"/>
		<polygon fill="#231F20" points="142.305,102.226 143.271,102.226 144.459,106.753 144.478,106.753 145.685,102.226     146.617,102.226 144.995,107.641 143.938,107.641   "/>
		<path fill="#231F20" d="M148.023,105.198c0,1.256,0.485,1.842,1.469,1.842c0.444,0,0.931-0.226,1.237-0.448l0.042,0.807    c-0.419,0.202-0.974,0.317-1.511,0.317c-1.43,0-2.169-1.082-2.169-2.781c0-1.698,0.739-2.783,2.082-2.783    c1.214,0,1.895,0.977,1.895,2.571v0.476H148.023z M150.181,104.521c0-1.125-0.349-1.688-1.059-1.688    c-0.571,0-1.077,0.424-1.099,1.688H150.181z"/>
		<path fill="#231F20" d="M152.047,103.395c0-0.393-0.03-0.789-0.043-1.169h0.858l0.034,0.85h0.022    c0.282-0.66,0.738-0.925,1.53-0.925v0.881c-0.104-0.02-0.22-0.029-0.336-0.029c-0.688,0-1.173,0.595-1.173,1.773v2.865h-0.894    V103.395z"/>
		<path fill="#231F20" d="M154.947,106.591c0.401,0.244,0.825,0.402,1.271,0.402c0.672,0,1.024-0.349,1.024-0.761    c0-0.373-0.191-0.627-0.688-0.854l-0.593-0.264c-0.771-0.351-1.059-0.701-1.059-1.39c0-0.893,0.688-1.574,1.736-1.574    c0.443,0,0.838,0.074,1.143,0.191l-0.045,0.767c-0.27-0.127-0.654-0.234-1.053-0.234c-0.585,0-0.891,0.319-0.891,0.743    c0,0.436,0.317,0.679,0.91,0.914l0.317,0.127c0.654,0.266,1.068,0.711,1.068,1.382c0,0.932-0.496,1.675-1.734,1.675    c-0.562,0-1.071-0.115-1.46-0.317L154.947,106.591z"/>
		<path fill="#231F20" d="M160.108,101.058h-0.973v-1.062h0.973V101.058z M159.18,102.226h0.887v5.415h-0.887V102.226z"/>
		<path fill="#231F20" d="M163.82,107.578c-0.213,0.074-0.507,0.137-0.75,0.137c-0.813,0-1.251-0.328-1.251-1.285v-3.481h-0.854    v-0.723h0.854v-1.103l0.889-0.266v1.369h1.112v0.723h-1.112v3.198c0,0.616,0.158,0.847,0.562,0.847    c0.225,0,0.382-0.063,0.551-0.135V107.578z"/>
		<path fill="#231F20" d="M166.264,108.747c-0.268,0.926-0.645,1.253-1.327,1.253c-0.207,0-0.44-0.021-0.597-0.064l0.041-0.808    c0.139,0.063,0.296,0.108,0.485,0.108c0.251,0,0.441-0.119,0.592-0.68l0.207-0.831l-1.698-5.5h0.932l1.208,4.419h0.022    l1.114-4.419h0.887L166.264,108.747z"/>
	</g>
</g>
</svg>